<svg width="198" height="137" viewBox="0 0 198 137" fill="none" xmlns="http://www.w3.org/2000/svg">
<g clip-path="url(#clip0_387_49)">
<path d="M145.399 107.155L145.209 110.031V118.555C145.204 119.209 144.941 119.835 144.477 120.296C144.013 120.757 143.385 121.015 142.731 121.015H131.296C130.645 121.011 130.022 120.75 129.562 120.29C129.101 119.829 128.841 119.206 128.836 118.555V115.298H70.0156V118.555C70.011 119.209 69.7479 119.835 69.2838 120.296C68.8197 120.757 68.1921 121.015 67.538 121.015H56.1031C55.452 121.011 54.8288 120.75 54.3684 120.29C53.908 119.829 53.6474 119.206 53.6428 118.555V109.65H47.9427L4.57666 123.025C5.16321 126.291 5.9208 129.524 6.84632 132.71H194.154C195.066 129.545 195.829 126.317 196.441 123.025L145.399 107.155Z" fill="#AAA5A4"/>
<path d="M16.7738 80.2653L20.4122 77.164L24.6396 80.8544L30.2878 77.9437L35.1563 82.3964L41.6361 77.4239L52.378 84.6487C52.8054 82.8119 53.373 81.0105 54.0759 79.2605C56.4899 78.6367 59.0715 78.0303 61.8204 77.4413L62.2536 76.4883H54.5957V74.929C54.5957 73.8262 55.0338 72.7686 55.8136 71.9888C56.5934 71.209 57.651 70.7709 58.7538 70.7709L64.4713 70.9441L64.1594 72.1569L71.4882 55.611C89.9036 53.4154 108.515 53.4154 126.93 55.611L134.935 72.8673L134.467 70.9441L140.184 70.7709C141.286 70.7755 142.341 71.215 143.119 71.9938C143.898 72.7726 144.338 73.8276 144.342 74.929V76.4883H136.633L137.1 77.5279C139.734 78.0823 142.211 78.6714 144.516 79.2605C144.914 80.248 145.33 81.2529 145.711 82.3098L146.404 81.6687L150.406 70.6843L152.815 75.6567L159.537 69.3502L171.769 81.5821L179.046 75.3449L181.367 77.5972L181.471 77.4239L183.29 76.3844L185.612 78.1863L191.312 72.5035L192.82 74.0454C190.764 67.9989 188.111 62.1719 184.902 56.6505H153.23C153.19 56.6505 153.149 56.6424 153.111 56.6268C153.073 56.6111 153.039 56.5881 153.01 56.5592C152.981 56.5302 152.958 56.4958 152.942 56.458C152.927 56.4201 152.919 56.3796 152.919 56.3386C152.919 55.7411 153.037 55.1494 153.266 54.5975C153.495 54.0456 153.831 53.5445 154.254 53.1227C154.678 52.701 155.18 52.367 155.733 52.1399C156.286 51.9128 156.878 51.797 157.475 51.7993C157.976 51.8008 158.473 51.8827 158.948 52.0419C158.992 52.0579 159.04 52.0636 159.087 52.0586C159.134 52.0536 159.179 52.038 159.219 52.013C159.259 51.9879 159.293 51.9541 159.318 51.9141C159.343 51.8741 159.359 51.8289 159.364 51.782C159.627 49.8349 160.483 48.0158 161.815 46.5715C163.148 45.1271 164.892 44.1272 166.811 43.7074C168.731 43.2876 170.733 43.468 172.546 44.2244C174.36 44.9807 175.897 46.2764 176.949 47.9357C176.985 47.996 177.042 48.0414 177.109 48.0637C177.175 48.0859 177.248 48.0836 177.313 48.057C177.877 47.8843 178.458 47.7739 179.046 47.7278C161.287 23.6279 132.717 8.00013 100.509 8.00013C85.5923 7.97553 70.8711 11.3905 57.489 17.9797C58.2155 18.6104 58.7699 19.4152 59.1003 20.3187C59.5145 21.3877 59.64 22.5469 59.4642 23.6798C59.4557 23.7426 59.4247 23.8001 59.3768 23.8416C59.329 23.8831 59.2676 23.9056 59.2043 23.9051H47.111C27.4464 36.7953 12.7369 56.5985 6.41309 79.8495L11.8533 74.8251L16.7738 80.2653ZM91.0488 24.7367C92.6212 24.7357 94.167 25.1416 95.5361 25.9148C96.5103 23.1276 98.2961 20.6956 100.664 18.9316C103.031 17.1676 105.873 16.1523 108.822 16.0163C111.771 15.8803 114.694 16.6298 117.214 18.1684C119.734 19.707 121.736 21.9643 122.963 24.6501C123.651 24.4953 124.354 24.4198 125.059 24.4248C127.577 24.4248 129.992 25.4251 131.773 27.2057C133.553 28.9862 134.553 31.4012 134.553 33.9193C134.557 34.2786 134.534 34.6376 134.484 34.9935H81.9355C81.9009 34.647 81.8835 34.2831 81.8835 33.9193C81.8812 32.7142 82.1166 31.5205 82.5762 30.4066C83.0358 29.2926 83.7105 28.2802 84.5618 27.4273C85.4131 26.5743 86.4243 25.8977 87.5374 25.436C88.6505 24.9743 89.8437 24.7367 91.0488 24.7367Z" fill="#F3E9DB"/>
<path d="M24.6399 80.8545L20.4124 77.1642L16.774 80.2654L11.8535 74.8252L6.41329 79.8496C6.37864 79.9536 6.36131 80.0575 6.32666 80.1615L13.6554 86.52L24.6399 80.8545Z" fill="#D2C5B8"/>
<path d="M185.612 78.1862L183.29 76.3844L181.471 77.4239L181.367 77.5972L188.661 84.7007L194.985 81.3568C194.361 78.8793 193.634 76.4363 192.819 74.0454L191.312 72.5034L185.612 78.1862Z" fill="#D2C5B8"/>
<path d="M41.636 77.4243L35.1562 82.3968L39.6609 86.5203L52.1527 85.6367C52.222 85.3075 52.2913 84.9783 52.3779 84.6491L41.636 77.4243Z" fill="#D2C5B8"/>
<path d="M150.407 70.6841L146.404 81.6685L152.815 75.6565L150.407 70.6841Z" fill="#D2C5B8"/>
<path d="M53.2094 108.003L47.9424 109.632H53.6425V109.441C53.4549 108.976 53.3099 108.495 53.2094 108.003Z" fill="#C1B2A3"/>
<path d="M51.8238 87.4032C51.9104 86.7968 52.0317 86.2077 52.153 85.6359L39.6612 86.5195L35.1565 82.396L30.288 77.9434L24.6398 80.8541L13.6554 86.5195L6.32665 80.161C5.18374 84.4179 4.33281 88.7478 3.77979 93.1206H51.3213C51.3393 91.2046 51.5073 89.2929 51.8238 87.4032Z" fill="#C1B2A3"/>
<path d="M181.368 77.5971L179.046 75.3448L171.769 81.582L159.537 69.3501L152.815 75.6566L146.404 81.6686L145.711 82.3097C146.942 85.6535 147.877 89.3439 147.669 93.1209H197.221C196.726 89.156 195.98 85.2267 194.986 81.3568L188.662 84.7006L181.368 77.5971Z" fill="#C1B2A3"/>
<path d="M147.669 93.1211C147.586 94.7145 147.283 96.2887 146.768 97.799L146.942 97.2619V101.437C146.944 102.135 146.801 102.825 146.52 103.464C146.24 104.103 145.829 104.675 145.313 105.145C145.354 105.496 145.377 105.849 145.382 106.202C145.385 106.55 145.362 106.897 145.313 107.241L154.478 110.066L196.441 123.025C197.481 117.239 198.002 111.371 198 105.492C198.004 101.356 197.743 97.2238 197.221 93.1211H147.669Z" fill="#A18477"/>
<path d="M53.2097 108.004C53.0904 107.411 53.0324 106.807 53.0365 106.202C53.036 105.744 53.0707 105.286 53.1404 104.833C52.2922 103.906 51.8224 102.694 51.8237 101.437V97.4178L56.3283 99.1851L51.4772 97.2792C51.3409 95.8976 51.2888 94.509 51.3212 93.1211H3.77969C3.26545 97.2246 3.00507 101.356 3.00004 105.492C2.99499 111.372 3.52269 117.24 4.57667 123.025L47.9427 109.632L53.2097 108.004Z" fill="#A18477"/>
<path d="M142.974 117.204H54.6133V121.015H142.974V117.204Z" fill="#919191"/>
<path d="M53.6431 109.459V118.555C53.6476 119.206 53.9083 119.829 54.3687 120.29C54.8291 120.75 55.4522 121.011 56.1033 121.015H67.5382C68.1923 121.015 68.8199 120.757 69.284 120.296C69.7482 119.835 70.0112 119.209 70.0158 118.555V115.298H62.1326C60.2931 115.297 58.4971 114.739 56.9814 113.696C55.4658 112.654 54.3018 111.176 53.6431 109.459Z" fill="#2D2D2D"/>
<path d="M136.286 115.298H128.836V118.555C128.84 119.206 129.101 119.829 129.562 120.29C130.022 120.75 130.645 121.011 131.296 121.015H142.731C143.385 121.015 144.013 120.757 144.477 120.296C144.941 119.835 145.204 119.209 145.209 118.555V107.969C144.797 110.033 143.683 111.891 142.056 113.227C140.43 114.563 138.391 115.295 136.286 115.298Z" fill="#2D2D2D"/>
<path d="M64.4713 70.9443L58.7539 70.771C57.651 70.771 56.5934 71.2091 55.8136 71.9889C55.0338 72.7687 54.5957 73.8263 54.5957 74.9291V76.4885H62.2536L64.1595 72.157L64.4713 70.9443Z" fill="#67DFDD"/>
<path d="M144.342 76.4885V74.9291C144.338 73.8277 143.898 72.7727 143.119 71.9939C142.341 71.2151 141.286 70.7756 140.184 70.771L134.467 70.9443L134.935 72.8674C135.506 74.0629 136.061 75.2757 136.633 76.4885H144.342Z" fill="#67DFDD"/>
<path d="M73.1344 57.8287C81.6171 56.8366 90.1493 56.3276 98.6897 56.3041C107.611 56.2899 116.526 56.799 125.389 57.8287L134.433 76.9736L137.101 77.528L136.633 76.4884C136.061 75.2756 135.507 74.0628 134.935 72.8674L126.931 55.611C108.515 53.4155 89.904 53.4155 71.4885 55.611L64.1598 72.157L62.2539 76.4884L61.8208 77.4413L64.5756 76.8869L73.1344 57.8287Z" fill="#67DFDD"/>
<path d="M98.6894 56.304C90.1489 56.3275 81.6167 56.8366 73.1341 57.8287L64.5752 76.8868C66.5676 76.5057 68.6294 76.1418 70.7778 75.7953H68.1096L74.7107 61.6403C74.9637 61.1056 75.3636 60.654 75.8636 60.338C76.3637 60.022 76.9433 59.8548 77.5348 59.8558H90.1132V58.8162H108.652V59.8558H121.213C121.806 59.8569 122.386 60.0291 122.884 60.3518C123.382 60.6745 123.776 61.1339 124.019 61.6749L130.309 75.7953H127.796C130.101 76.1592 132.301 76.5577 134.432 76.9735L125.388 57.8287C116.526 56.7989 107.611 56.2899 98.6894 56.304Z" fill="#26303C"/>
<path d="M71.9215 75.1025L73.8446 68.1376C74.2085 66.9595 74.7802 66.0932 75.9237 66.0932H82.2129L83.5297 61.7618C85.6607 61.6232 87.8611 61.5019 90.1134 61.4153V59.856H77.535C76.9435 59.855 76.3639 60.0222 75.8639 60.3382C75.3638 60.6542 74.964 61.1058 74.7109 61.6405L68.1099 75.7955H70.778L72.2334 75.5703C72.1377 75.5367 72.0556 75.4729 71.9993 75.3885C71.9431 75.3041 71.9158 75.2038 71.9215 75.1025Z" fill="#394156"/>
<path d="M124.019 61.6751C123.776 61.1341 123.382 60.6747 122.884 60.352C122.386 60.0293 121.806 59.8571 121.212 59.856H108.651V61.4153C110.852 61.5019 113.104 61.6058 115.408 61.7618C115.651 63.2518 116.136 64.6725 116.656 66.0932H122.737C123.898 66.0932 124.47 66.9595 124.816 68.1376L126.757 75.1025C126.759 75.2077 126.729 75.311 126.67 75.3981C126.611 75.4851 126.526 75.5514 126.427 75.5876L127.796 75.7955H130.308L124.019 61.6751Z" fill="#394156"/>
<path d="M105.602 70.9443L104.667 69.9048H93.5784L92.6602 70.9443H89.6455L90.3385 73.7684C93.128 73.6298 96.004 73.5432 98.9494 73.5432C102.172 73.5432 105.291 73.6125 108.323 73.7684L109.016 70.9443H105.602Z" fill="#394156"/>
<path d="M90.1129 63.6674V61.415C87.8606 61.5017 85.6602 61.6229 83.5292 61.7616L82.2124 66.093H86.8903C88.0338 66.093 88.6056 66.786 88.9694 68.1374L89.6451 70.9441H92.6598L93.578 69.9046H104.666L105.602 70.9441H109.015L109.708 68.1374C110.055 66.786 110.644 66.093 111.787 66.093H116.656C116.136 64.6723 115.651 63.2516 115.408 61.7616C113.104 61.6056 110.852 61.5017 108.651 61.415V63.6674H90.1129Z" fill="#ADB5CC"/>
<path d="M90.1133 63.6676H108.652V61.4153V59.8559V58.8164H90.1133V59.8559V61.4153V63.6676Z" fill="#282E3C"/>
<path d="M88.9696 68.1372C88.6057 66.7858 88.034 66.0928 86.8905 66.0928H75.9234C74.7799 66.0928 74.2081 66.9591 73.8443 68.1372L71.9212 75.1021C71.9154 75.2033 71.9427 75.3037 71.999 75.3881C72.0552 75.4724 72.1374 75.5363 72.233 75.5699C78.2341 74.6658 84.2768 74.0644 90.3383 73.768L89.6453 70.944L88.9696 68.1372Z" fill="#282E3C"/>
<path d="M126.757 75.1021L124.816 68.1372C124.47 66.9591 123.898 66.0928 122.737 66.0928H111.787C110.644 66.0928 110.055 66.7858 109.708 68.1372L109.015 70.944L108.322 73.768C114.384 74.0698 120.427 74.677 126.428 75.5872C126.526 75.551 126.611 75.4847 126.67 75.3977C126.729 75.3106 126.76 75.2072 126.757 75.1021Z" fill="#282E3C"/>
<path d="M145.209 107.969C145.26 107.729 145.295 107.486 145.313 107.241C145.362 106.897 145.385 106.549 145.382 106.202C145.377 105.849 145.354 105.496 145.313 105.145C144.385 105.993 143.174 106.463 141.917 106.462H56.8306C56.136 106.462 55.449 106.317 54.8136 106.037C54.1781 105.756 53.6082 105.346 53.1403 104.833C53.0706 105.286 53.0359 105.744 53.0363 106.202C53.0322 106.807 53.0903 107.41 53.2096 108.004C53.3091 108.501 53.4541 108.988 53.6427 109.459C54.3014 111.176 55.4654 112.654 56.9811 113.696C58.4967 114.739 60.2928 115.297 62.1323 115.298H136.286C138.391 115.294 140.43 114.563 142.056 113.227C143.683 111.891 144.797 110.033 145.209 107.969ZM64.3846 112.006C63.9563 112.006 63.5376 111.879 63.1814 111.641C62.8253 111.403 62.5477 111.065 62.3838 110.669C62.2199 110.273 62.177 109.838 62.2605 109.418C62.3441 108.998 62.5504 108.612 62.8532 108.309C63.1561 108.006 63.542 107.8 63.9621 107.716C64.3822 107.632 64.8177 107.675 65.2134 107.839C65.6091 108.003 65.9474 108.281 66.1853 108.637C66.4233 108.993 66.5503 109.412 66.5503 109.84C66.5503 110.414 66.3222 110.965 65.916 111.371C65.5099 111.778 64.959 112.006 64.3846 112.006ZM118.077 112.785H80.3762C79.0298 112.785 77.7386 112.251 76.7866 111.299C75.8346 110.347 75.2998 109.055 75.2998 107.709V106.635H123.465V107.397C123.465 108.105 123.326 108.805 123.055 109.459C122.784 110.113 122.387 110.707 121.887 111.207C121.386 111.708 120.792 112.105 120.139 112.375C119.485 112.646 118.784 112.785 118.077 112.785ZM134.38 112.006C133.952 112.006 133.533 111.879 133.177 111.641C132.821 111.403 132.543 111.065 132.379 110.669C132.215 110.273 132.173 109.838 132.256 109.418C132.34 108.998 132.546 108.612 132.849 108.309C133.152 108.006 133.538 107.8 133.958 107.716C134.378 107.632 134.813 107.675 135.209 107.839C135.605 108.003 135.943 108.281 136.181 108.637C136.419 108.993 136.546 109.412 136.546 109.84C136.546 110.414 136.318 110.965 135.912 111.371C135.505 111.778 134.955 112.006 134.38 112.006Z" fill="#67DFDD"/>
<path d="M56.8308 106.462H141.917C143.25 106.462 144.528 105.933 145.47 104.99C146.412 104.048 146.941 102.77 146.941 101.438V97.2622L146.768 97.7993L142.437 99.1853H56.3284L51.8237 97.4181V101.438C51.8237 102.767 52.3507 104.043 53.2892 104.984C54.2277 105.926 55.5013 106.458 56.8308 106.462ZM119.74 104.383H78.9383C78.7316 104.383 78.5333 104.301 78.387 104.155C78.2408 104.008 78.1587 103.81 78.1587 103.603C78.1587 103.397 78.2408 103.198 78.387 103.052C78.5333 102.906 78.7316 102.824 78.9383 102.824H119.74C119.947 102.824 120.145 102.906 120.292 103.052C120.438 103.198 120.52 103.397 120.52 103.603C120.52 103.81 120.438 104.008 120.292 104.155C120.145 104.301 119.947 104.383 119.74 104.383ZM134.727 101.957H140.184C140.391 101.957 140.59 102.04 140.736 102.186C140.882 102.332 140.964 102.53 140.964 102.737C140.964 102.944 140.882 103.142 140.736 103.288C140.59 103.435 140.391 103.517 140.184 103.517H134.727C134.52 103.517 134.322 103.435 134.176 103.288C134.029 103.142 133.947 102.944 133.947 102.737C133.947 102.53 134.029 102.332 134.176 102.186C134.322 102.04 134.52 101.957 134.727 101.957ZM58.4941 101.957H63.9517C64.1585 101.957 64.3568 102.04 64.503 102.186C64.6492 102.332 64.7313 102.53 64.7313 102.737C64.7313 102.944 64.6492 103.142 64.503 103.288C64.3568 103.435 64.1585 103.517 63.9517 103.517H58.4941C58.2873 103.517 58.089 103.435 57.9428 103.288C57.7966 103.142 57.7144 102.944 57.7144 102.737C57.7144 102.53 57.7966 102.332 57.9428 102.186C58.089 102.04 58.2873 101.957 58.4941 101.957Z" fill="#67DFDD"/>
<path d="M142.437 99.1849L146.768 97.7989C147.283 96.2885 147.586 94.7143 147.669 93.1209C147.877 89.3439 146.941 85.6536 145.711 82.3097C145.33 81.2529 144.914 80.248 144.516 79.2604C142.212 78.6714 139.734 78.0823 137.101 77.5279L134.432 76.9734C132.301 76.5576 130.101 76.1591 127.797 75.7953L126.428 75.5874C120.427 74.6772 114.384 74.07 108.323 73.7682C105.291 73.6123 102.172 73.543 98.9495 73.543C96.0041 73.543 93.1281 73.6296 90.3386 73.7682C84.2771 74.0646 78.2344 74.666 72.2334 75.5701L70.778 75.7953C68.6296 76.1418 66.5679 76.5056 64.5754 76.8868L61.8207 77.4412C59.0601 78.0303 56.4786 78.6367 54.0761 79.2604C53.3732 81.0105 52.8056 82.8118 52.3782 84.6487C52.2916 84.9779 52.2223 85.3071 52.153 85.6363C52.0837 85.9654 51.9104 86.7971 51.8238 87.4035C51.5073 89.2933 51.3393 91.2049 51.3213 93.1209C51.2889 94.5089 51.341 95.8975 51.4773 97.2791L56.3284 99.1849H142.437ZM74.5203 99.0983C74.6944 97.0424 75.2219 95.032 76.0797 93.1556C76.929 91.2739 78.1018 89.5557 79.5448 88.0792C86.1063 87.3952 92.699 87.054 99.296 87.057C105.951 87.0543 112.601 87.3955 119.22 88.0792C121.646 91.6309 123.898 94.8535 124.591 99.0983H74.5203ZM97.2169 85.0645C97.2169 84.8577 97.2991 84.6594 97.4453 84.5132C97.5915 84.367 97.7898 84.2849 97.9966 84.2849H100.682C100.889 84.2849 101.087 84.367 101.233 84.5132C101.38 84.6594 101.462 84.8577 101.462 85.0645C101.462 85.2713 101.38 85.4696 101.233 85.6158C101.087 85.762 100.889 85.8442 100.682 85.8442H97.9966C97.7898 85.8442 97.5915 85.762 97.4453 85.6158C97.2991 85.4696 97.2169 85.2713 97.2169 85.0645ZM142.939 96.5861H130.811C129.41 96.109 128.197 95.1989 127.346 93.9872C125.666 91.5443 126.203 88.8935 126.307 88.443H139.734C140.584 88.443 141.399 88.7807 142 89.3818C142.602 89.9829 142.939 90.7982 142.939 91.6483V96.5861ZM55.6354 96.5861V91.6483C55.6354 90.7982 55.9731 89.9829 56.5742 89.3818C57.1753 88.7807 57.9906 88.443 58.8406 88.443H72.268C72.372 88.8935 72.9091 91.5443 71.2285 93.9872C70.3781 95.1989 69.1647 96.109 67.7633 96.5861H55.6354Z" fill="#67DFDD"/>
<path d="M97.9965 85.8445H100.682C100.889 85.8445 101.087 85.7623 101.233 85.6161C101.379 85.4699 101.462 85.2716 101.462 85.0648C101.462 84.858 101.379 84.6597 101.233 84.5135C101.087 84.3673 100.889 84.2852 100.682 84.2852H97.9965C97.7897 84.2852 97.5914 84.3673 97.4451 84.5135C97.2989 84.6597 97.2168 84.858 97.2168 85.0648C97.2168 85.2716 97.2989 85.4699 97.4451 85.6161C97.5914 85.7623 97.7897 85.8445 97.9965 85.8445Z" fill="#3A3A3A"/>
<path d="M58.494 103.516H63.9516C64.1584 103.516 64.3567 103.434 64.5029 103.288C64.6491 103.142 64.7312 102.943 64.7312 102.737C64.7312 102.53 64.6491 102.332 64.5029 102.185C64.3567 102.039 64.1584 101.957 63.9516 101.957H58.494C58.2872 101.957 58.0889 102.039 57.9427 102.185C57.7965 102.332 57.7144 102.53 57.7144 102.737C57.7144 102.943 57.7965 103.142 57.9427 103.288C58.0889 103.434 58.2872 103.516 58.494 103.516Z" fill="#3A3A3A"/>
<path d="M134.727 103.516H140.184C140.391 103.516 140.59 103.434 140.736 103.288C140.882 103.142 140.964 102.943 140.964 102.737C140.964 102.53 140.882 102.332 140.736 102.185C140.59 102.039 140.391 101.957 140.184 101.957H134.727C134.52 101.957 134.322 102.039 134.176 102.185C134.029 102.332 133.947 102.53 133.947 102.737C133.947 102.943 134.029 103.142 134.176 103.288C134.322 103.434 134.52 103.516 134.727 103.516Z" fill="#3A3A3A"/>
<path d="M119.74 102.823H78.9383C78.7316 102.823 78.5333 102.905 78.387 103.052C78.2408 103.198 78.1587 103.396 78.1587 103.603C78.1587 103.81 78.2408 104.008 78.387 104.154C78.5333 104.3 78.7316 104.383 78.9383 104.383H119.74C119.947 104.383 120.145 104.3 120.292 104.154C120.438 104.008 120.52 103.81 120.52 103.603C120.52 103.396 120.438 103.198 120.292 103.052C120.145 102.905 119.947 102.823 119.74 102.823Z" fill="#3A3A3A"/>
<path d="M119.22 88.0794C112.601 87.3956 105.95 87.0544 99.2957 87.0571C92.6986 87.0542 86.1059 87.3954 79.5445 88.0794C78.1015 89.5559 76.9287 91.274 76.0793 93.1558C75.2216 95.0322 74.694 97.0426 74.52 99.0985H124.591C123.898 94.8537 121.646 91.6311 119.22 88.0794Z" fill="#2D2D2D"/>
<path d="M123.465 107.397V106.635H75.2998V107.709C75.2998 109.055 75.8346 110.347 76.7867 111.299C77.7387 112.251 79.0299 112.785 80.3762 112.785H118.077C118.784 112.785 119.485 112.646 120.139 112.375C120.793 112.104 121.387 111.708 121.887 111.207C122.387 110.707 122.784 110.113 123.055 109.459C123.326 108.805 123.465 108.105 123.465 107.397Z" fill="#2D2D2D"/>
<path d="M64.3849 112.006C65.581 112.006 66.5506 111.037 66.5506 109.841C66.5506 108.644 65.581 107.675 64.3849 107.675C63.1889 107.675 62.2192 108.644 62.2192 109.841C62.2192 111.037 63.1889 112.006 64.3849 112.006Z" fill="white"/>
<path d="M134.38 112.006C135.576 112.006 136.546 111.037 136.546 109.841C136.546 108.644 135.576 107.675 134.38 107.675C133.184 107.675 132.214 108.644 132.214 109.841C132.214 111.037 133.184 112.006 134.38 112.006Z" fill="white"/>
<path d="M139.734 88.4434H135.576C136.426 88.4434 137.241 88.7811 137.842 89.3822C138.443 89.9833 138.781 90.7985 138.781 91.6486V96.5864H142.939V91.6486C142.939 90.7985 142.601 89.9833 142 89.3822C141.399 88.7811 140.584 88.4434 139.734 88.4434Z" fill="#FC9900"/>
<path d="M138.781 91.6486C138.781 90.7985 138.443 89.9833 137.842 89.3822C137.241 88.7811 136.426 88.4434 135.576 88.4434H126.306C126.202 88.8938 125.665 91.5446 127.346 93.9876C128.196 95.1993 129.41 96.1093 130.811 96.5864H138.781V91.6486ZM135.229 91.3887C135.229 91.1819 135.311 90.9836 135.457 90.8374C135.604 90.6912 135.802 90.6091 136.009 90.6091C136.216 90.6091 136.414 90.6912 136.56 90.8374C136.706 90.9836 136.788 91.1819 136.788 91.3887V94.3341C136.788 94.5409 136.706 94.7392 136.56 94.8854C136.414 95.0316 136.216 95.1137 136.009 95.1137C135.802 95.1137 135.604 95.0316 135.457 94.8854C135.311 94.7392 135.229 94.5409 135.229 94.3341V91.3887Z" fill="#CCDDF9"/>
<path d="M136.009 95.1136C136.215 95.1136 136.414 95.0314 136.56 94.8852C136.706 94.739 136.788 94.5407 136.788 94.3339V91.3885C136.788 91.1818 136.706 90.9835 136.56 90.8372C136.414 90.691 136.215 90.6089 136.009 90.6089C135.802 90.6089 135.604 90.691 135.457 90.8372C135.311 90.9835 135.229 91.1818 135.229 91.3885V94.3339C135.229 94.5407 135.311 94.739 135.457 94.8852C135.604 95.0314 135.802 95.1136 136.009 95.1136Z" fill="white"/>
<path d="M59.7934 91.6486C59.7934 90.7985 60.1311 89.9833 60.7322 89.3822C61.3333 88.7811 62.1486 88.4434 62.9986 88.4434H58.8405C57.9904 88.4434 57.1751 88.7811 56.574 89.3822C55.9729 89.9833 55.6353 90.7985 55.6353 91.6486V96.5864H59.7934V91.6486Z" fill="#FC9900"/>
<path d="M59.7935 91.6486V96.5864H67.7632C69.1646 96.1093 70.378 95.1993 71.2284 93.9876C72.909 91.5446 72.3719 88.8938 72.2679 88.4434H62.9987C62.1486 88.4434 61.3333 88.7811 60.7322 89.3822C60.1312 89.9833 59.7935 90.7985 59.7935 91.6486ZM62.5656 90.6091C62.7723 90.6091 62.9706 90.6912 63.1169 90.8374C63.2631 90.9836 63.3452 91.1819 63.3452 91.3887V94.3341C63.3452 94.5409 63.2631 94.7392 63.1169 94.8854C62.9706 95.0316 62.7723 95.1137 62.5656 95.1137C62.3588 95.1137 62.1605 95.0316 62.0143 94.8854C61.868 94.7392 61.7859 94.5409 61.7859 94.3341V91.3887C61.7859 91.1819 61.868 90.9836 62.0143 90.8374C62.1605 90.6912 62.3588 90.6091 62.5656 90.6091Z" fill="#CCDDF9"/>
<path d="M61.7861 94.3339C61.7861 94.5407 61.8683 94.739 62.0145 94.8852C62.1607 95.0314 62.359 95.1136 62.5658 95.1136C62.7726 95.1136 62.9709 95.0314 63.1171 94.8852C63.2633 94.739 63.3454 94.5407 63.3454 94.3339V91.3885C63.3454 91.1818 63.2633 90.9835 63.1171 90.8372C62.9709 90.691 62.7726 90.6089 62.5658 90.6089C62.359 90.6089 62.1607 90.691 62.0145 90.8372C61.8683 90.9835 61.7861 91.1818 61.7861 91.3885V94.3339Z" fill="white"/>
<path d="M134.484 34.9934C134.534 34.6375 134.557 34.2785 134.554 33.9192C134.554 31.4011 133.553 28.9861 131.773 27.2056C129.992 25.425 127.577 24.4247 125.059 24.4247C124.354 24.4197 123.651 24.4952 122.963 24.65C121.736 21.9642 119.734 19.7069 117.214 18.1683C114.694 16.6297 111.772 15.8802 108.822 16.0162C105.873 16.1522 103.032 17.1675 100.664 18.9315C98.2963 20.6955 96.5106 23.1275 95.5364 25.9147C94.1407 25.1311 92.5642 24.7265 90.9636 24.7415C89.363 24.7564 87.7943 25.1902 86.4135 25.9998C85.0327 26.8093 83.888 27.9664 83.0932 29.3558C82.2985 30.7452 81.8816 32.3185 81.8838 33.9192C81.8838 34.283 81.9011 34.6468 81.9358 34.9934H134.484Z" fill="white"/>
<path d="M59.464 23.6801C59.6398 22.5472 59.5143 21.388 59.1002 20.3189C58.7697 19.4155 58.2153 18.6107 57.4889 17.98C53.9113 19.7405 50.4454 21.7193 47.1108 23.9053H59.2041C59.2675 23.9059 59.3288 23.8833 59.3767 23.8419C59.4245 23.8004 59.4556 23.7429 59.464 23.6801Z" fill="white"/>
<path d="M176.95 47.9183C175.897 46.259 174.36 44.9634 172.547 44.207C170.733 43.4507 168.731 43.2702 166.811 43.69C164.892 44.1099 163.148 45.1097 161.816 46.5541C160.484 47.9985 159.628 49.8175 159.364 51.7646C159.359 51.8116 159.343 51.8568 159.318 51.8968C159.293 51.9368 159.259 51.9706 159.219 51.9956C159.179 52.0206 159.134 52.0362 159.087 52.0412C159.04 52.0462 158.993 52.0405 158.948 52.0245C158.474 51.8654 157.976 51.7835 157.476 51.782C156.878 51.7797 156.286 51.8954 155.733 52.1225C155.18 52.3496 154.678 52.6836 154.255 53.1053C153.831 53.5271 153.495 54.0283 153.266 54.5801C153.037 55.132 152.919 55.7237 152.919 56.3213C152.919 56.404 152.952 56.4833 153.01 56.5418C153.069 56.6003 153.148 56.6331 153.231 56.6331H184.902C183.114 53.5487 181.159 50.5642 179.046 47.6931C178.458 47.7392 177.877 47.8496 177.313 48.0223C177.25 48.0505 177.179 48.0555 177.113 48.0365C177.046 48.0175 176.988 47.9756 176.95 47.9183Z" fill="white"/>
</g>
<defs>
<clipPath id="clip0_387_49">
<rect width="198" height="137" fill="white"/>
</clipPath>
</defs>
</svg>
