<svg width="195" height="125" viewBox="0 0 195 125" fill="none" xmlns="http://www.w3.org/2000/svg">
<path fill-rule="evenodd" clip-rule="evenodd" d="M191.068 125C193.627 116.278 195 107.05 195 97.5C195 43.6522 151.348 0 97.5 0C43.6522 0 0 43.6522 0 97.5C0 107.05 1.37289 116.278 3.93205 125H191.068Z" fill="#F3E9DB"/>
<path fill-rule="evenodd" clip-rule="evenodd" d="M70.9668 15.2783C71.1881 20.3683 73.6225 32.2745 81.5894 39.1793C91.5482 47.8102 92.876 51.1297 92.2121 53.7854C91.5482 56.4411 85.5729 62.4163 82.9173 65.072C80.2616 67.7276 70.9668 77.6863 70.9668 90.3007H97.5238H98.8512H125.408C125.408 77.6863 116.113 67.7276 113.458 65.072C110.802 62.4163 104.827 56.4411 104.163 53.7854C103.499 51.1297 104.827 47.8102 114.786 39.1793C122.753 32.2745 125.187 20.3683 125.408 15.2783H98.8512H97.5238H70.9668Z" fill="white"/>
<path fill-rule="evenodd" clip-rule="evenodd" d="M73.6226 12.6226H98.1875L122.752 12.6226C122.752 18.0034 120.085 30.7304 109.417 38.5911C105.928 41.1496 98.8324 47.3615 98.1981 51.8476C98.2108 51.7225 98.2083 51.5756 98.1875 51.4071C98.1667 51.5756 98.1642 51.7225 98.1769 51.8476C97.5426 47.3615 90.4466 41.1496 86.9578 38.5911C76.2896 30.7304 73.6226 18.0034 73.6226 12.6226ZM98.1874 51.9263C98.1841 51.9002 98.1806 51.8739 98.1769 51.8476C98.1797 51.8749 98.1832 51.9011 98.1874 51.9263ZM98.1876 51.9263C98.1908 51.9002 98.1943 51.8739 98.1981 51.8476C98.1953 51.8749 98.1918 51.9011 98.1876 51.9263Z" fill="#F1F3F2"/>
<path d="M76.2782 24.5733C74.1537 21.3865 73.6226 16.1637 73.6226 13.9507H112.13C99.3825 13.9507 82.9174 21.0324 76.2782 24.5733Z" fill="#D9D9D9"/>
<path fill-rule="evenodd" clip-rule="evenodd" d="M122.752 93.0889H98.1875L98.1875 93.0887H73.6226C73.6226 87.7078 76.2896 74.9809 86.9578 67.1201C90.4466 64.5616 97.5426 58.3497 98.1769 53.8636C98.1797 53.8363 98.1832 53.8101 98.1874 53.7849C98.1841 53.8111 98.1806 53.8373 98.1769 53.8636C98.1642 53.9887 98.1667 54.1357 98.1875 54.3041V54.3043C98.2083 54.1358 98.2108 53.9889 98.1981 53.8638C98.1943 53.8375 98.1908 53.8113 98.1876 53.7851C98.1918 53.8103 98.1953 53.8365 98.1981 53.8638C98.8324 58.3499 105.928 64.5618 109.417 67.1203C120.085 74.9811 122.752 87.708 122.752 93.0889Z" fill="#C4996C"/>
<path d="M119.433 80.3418C121.026 82.4663 122.31 87.8662 122.752 90.3005H86.7346C84.2215 90.4355 81.6161 90.4455 78.9341 90.3005H86.7346C102.636 89.4466 114.846 83.5905 119.433 80.3418Z" fill="#AE8B64"/>
<path fill-rule="evenodd" clip-rule="evenodd" d="M74.9507 3C74.9507 2.44772 75.3984 2 75.9507 2H120.425C120.977 2 121.425 2.44772 121.425 3V5.98341H123.391C126.705 5.98341 129.391 8.6697 129.391 11.9834V15.2783H66.9834V11.9834C66.9834 8.6697 69.6697 5.98341 72.9834 5.98341H74.9507V3Z" fill="#594B42"/>
<path fill-rule="evenodd" clip-rule="evenodd" d="M74.9507 101.915C74.9507 102.467 75.3984 102.915 75.9507 102.915H120.425C120.977 102.915 121.425 102.467 121.425 101.915V98.9316H123.391C126.705 98.9316 129.391 96.2453 129.391 92.9316V89.6367H66.9834V92.9316C66.9834 96.2453 69.6697 98.9316 72.9834 98.9316H74.9507V101.915Z" fill="#594B42"/>
<ellipse cx="98.1875" cy="114.865" rx="35.1875" ry="3.98349" fill="#D0BEA5"/>
<path fill-rule="evenodd" clip-rule="evenodd" d="M81.8777 33.8682C83.3255 35.5554 85.008 37.1547 86.9579 38.5914C90.4467 41.1498 97.5427 47.3618 98.177 51.8479C98.1798 51.8751 98.1833 51.9014 98.1875 51.9266C98.1842 51.9004 98.1807 51.8742 98.177 51.8479C98.1643 51.7227 98.1668 51.5758 98.1876 51.4073C98.2084 51.5758 98.2109 51.7227 98.1982 51.8479C98.1944 51.8742 98.1909 51.9004 98.1877 51.9266C98.1919 51.9014 98.1954 51.8751 98.1982 51.8479C98.8325 47.3618 105.928 41.1498 109.417 38.5914C111.367 37.1547 113.05 35.5554 114.497 33.8682H81.8777Z" fill="#C4996C"/>
</svg>
