<svg width="191" height="128" viewBox="0 0 191 128" fill="none" xmlns="http://www.w3.org/2000/svg">
<path fill-rule="evenodd" clip-rule="evenodd" d="M187.149 127.681C189.655 119.138 191 110.098 191 100.745C191 48.0014 148.243 5.24463 95.5 5.24463C42.7568 5.24463 0 48.0014 0 100.745C0 110.098 1.34474 119.138 3.85144 127.681H187.149Z" fill="#F3E9DB"/>
<path d="M77.3896 8.43164L133.705 74.7143L101.578 102.01L45.2629 35.7273L77.3896 8.43164Z" fill="#1B5F30"/>
<path fill-rule="evenodd" clip-rule="evenodd" d="M127.45 74.2061L76.8811 14.687L56.0029 32.4256L55.3285 40.7213L102.087 95.7553L127.45 74.2061Z" fill="#69932F"/>
<path d="M57.4661 25.2942L61.6817 21.7441L68.1162 45.0413H62.3474L57.4661 25.2942Z" fill="black" fill-opacity="0.5"/>
<path d="M100.917 7.54395L121.061 92.155L80.0506 101.919L59.9068 17.3075L100.917 7.54395Z" fill="#3F8E58"/>
<path fill-rule="evenodd" clip-rule="evenodd" d="M115.716 88.8664L97.6282 12.8892L70.9766 19.2342L66.6145 26.3223L83.3398 96.5745L115.716 88.8664Z" fill="#9ACD56"/>
<path d="M76.104 13.5344L78.7665 12.8688L82.5384 12.2031L86.0885 45.7066H79.654L76.104 13.5344Z" fill="black" fill-opacity="0.5"/>
<path d="M125.631 0.634686C128.926 0.284158 131.881 2.67122 132.232 5.96634L139.057 70.1277C139.408 73.4228 137.021 76.3782 133.726 76.7287L92.1618 81.1502C88.8666 81.5007 85.9113 79.1136 85.5607 75.8185L78.7354 11.6572C78.3849 8.36206 80.7719 5.40668 84.067 5.05616L125.631 0.634686Z" fill="#2D2D2D"/>
<path fill-rule="evenodd" clip-rule="evenodd" d="M110.915 17.3797C110.527 17.67 110.062 17.8682 109.551 17.9381L109.929 21.4938L112.417 21.2292L112.134 18.5716L110.915 17.3797ZM112.95 21.1725L113.094 21.1572C114.192 21.0403 114.988 20.0552 114.871 18.9568L114.421 14.7255L112.099 14.9725C112.111 15.7529 111.815 16.4787 111.314 17.0201L112.647 18.3231L112.64 18.3304L112.647 18.3296L112.95 21.1725ZM114.364 14.1923L113.933 10.1377C113.816 9.03933 112.831 8.24365 111.733 8.36049L111.589 8.37577L111.892 11.2198L111.884 11.2205L111.892 11.2257L110.936 12.6697C111.492 13.0934 111.898 13.7131 112.042 14.4393L114.364 14.1923ZM111.056 8.43249L111.339 11.0904L110.482 12.3847C110.016 12.1485 109.483 12.0333 108.927 12.0756L108.568 8.69717L111.056 8.43249ZM108.035 8.75389L105.595 9.01341L105.897 11.8499L107.034 12.9617C107.399 12.5851 107.866 12.3038 108.397 12.1644L108.035 8.75389ZM105.062 9.07013L105.046 9.07177C103.948 9.18861 103.152 10.1737 103.269 11.2721L103.7 15.3263L106.201 15.0604C106.191 14.4454 106.373 13.8644 106.696 13.3808L105.384 12.0985L105.39 12.0918L105.383 12.0925L105.062 9.07013ZM103.757 15.8595L104.207 20.0912C104.324 21.1896 105.309 21.9853 106.408 21.8684L106.423 21.8668L106.101 18.8458L106.109 18.845L106.101 18.8398L107.18 17.2108C106.718 16.7968 106.385 16.237 106.258 15.5936L103.757 15.8595ZM106.956 21.8101L109.396 21.5506L109.014 17.9628C108.506 17.94 108.025 17.7863 107.61 17.5318L106.654 18.9751L106.956 21.8101ZM106.963 15.249C107.092 16.4567 108.175 17.3316 109.382 17.2032C110.59 17.0747 111.465 15.9915 111.337 14.7837C111.208 13.576 110.125 12.7011 108.917 12.8296C107.709 12.9581 106.835 14.0413 106.963 15.249Z" fill="#FECC1C"/>
<path d="M97.3948 9.88574L98.9908 24.8887L93.2543 25.499L91.6583 10.496L97.3948 9.88574Z" fill="#D9D9D9"/>
<path d="M99.554 30.1836L101.15 45.1866L95.4135 45.7968L93.8175 30.7938L99.554 30.1836Z" fill="#D9D9D9"/>
<path d="M101.713 50.4824L103.309 65.4854L97.5727 66.0957L95.9767 51.0927L101.713 50.4824Z" fill="#D9D9D9"/>
<path d="M89.2449 12.9839L92.3899 42.5486L89.7423 42.8303L86.5973 13.2655L89.2449 12.9839Z" fill="#D9D9D9"/>
<path d="M92.5779 44.314L95.7229 73.8787L93.0753 74.1603L89.9303 44.5956L92.5779 44.314Z" fill="#D9D9D9"/>
<path d="M37.7188 52.9316C37.7188 47.9611 41.7482 43.9316 46.7188 43.9316H142.32C147.29 43.9316 151.32 47.9611 151.32 52.9316V113.032C151.32 118.003 147.29 122.032 142.32 122.032H46.7188C41.7482 122.032 37.7188 118.003 37.7188 113.032V52.9316Z" fill="#894A21"/>
<path fill-rule="evenodd" clip-rule="evenodd" d="M52.0439 117.595C51.3553 117.595 50.6847 117.517 50.0403 117.371C49.7128 117.296 49.392 117.204 49.0791 117.095C48.7615 116.984 48.4521 116.856 48.1518 116.712C48.4819 115.762 49.4804 115.193 50.4837 115.421C50.9836 115.534 51.5055 115.595 52.0439 115.595H55.0779C56.1825 115.595 57.0779 116.49 57.0779 117.595H52.0439ZM78.3157 117.595C78.3157 116.49 77.4202 115.595 76.3157 115.595H70.2477C69.1432 115.595 68.2477 116.49 68.2477 117.595H78.3157ZM99.5534 117.595C99.5534 116.49 98.658 115.595 97.5534 115.595H91.4855C90.3809 115.595 89.4855 116.49 89.4855 117.595H99.5534ZM120.791 117.595C120.791 116.49 119.896 115.595 118.791 115.595H112.723C111.619 115.595 110.723 116.49 110.723 117.595H120.791ZM140.887 116.712C140.557 115.762 139.558 115.193 138.555 115.421C138.055 115.534 137.533 115.595 136.995 115.595H133.961C132.856 115.595 131.961 116.49 131.961 117.595H136.995C137.684 117.595 138.354 117.517 138.999 117.371C139.326 117.296 139.647 117.204 139.96 117.095C140.277 116.984 140.587 116.856 140.887 116.712ZM145.995 102.904C144.89 102.904 143.995 103.8 143.995 104.904V108.595C143.995 109.133 143.935 109.655 143.821 110.155C143.593 111.158 144.163 112.157 145.112 112.487C145.256 112.187 145.384 111.877 145.495 111.56C145.604 111.247 145.697 110.926 145.771 110.598C145.918 109.954 145.995 109.283 145.995 108.595V102.904ZM145.995 77.0693C144.89 77.0693 143.995 77.9648 143.995 79.0693V86.4507C143.995 87.5553 144.89 88.4507 145.995 88.4507V77.0693ZM145.112 53.0332C144.163 53.3632 143.593 54.3618 143.821 55.3651C143.935 55.8649 143.995 56.3868 143.995 56.9253V60.616C143.995 61.7205 144.89 62.616 145.995 62.616V56.9253C145.995 56.2366 145.918 55.566 145.771 54.9217C145.697 54.5941 145.604 54.2734 145.495 53.9605C145.384 53.6429 145.256 53.3334 145.112 53.0332ZM131.961 47.9253C131.961 49.0299 132.856 49.9253 133.961 49.9253H136.995C137.533 49.9253 138.055 49.9857 138.555 50.0994C139.559 50.3275 140.557 49.7577 140.887 48.8081C140.587 48.6639 140.277 48.5358 139.96 48.4251C139.647 48.3159 139.326 48.2236 138.999 48.1491C138.354 48.0026 137.684 47.9253 136.995 47.9253H131.961ZM110.723 47.9253C110.723 49.0299 111.619 49.9253 112.723 49.9253H118.791C119.896 49.9253 120.791 49.0299 120.791 47.9253H110.723ZM89.4855 47.9253C89.4855 49.0299 90.3809 49.9253 91.4855 49.9253H97.5534C98.658 49.9253 99.5534 49.0299 99.5534 47.9253H89.4855ZM68.2477 47.9253C68.2477 49.0299 69.1432 49.9253 70.2477 49.9253H76.3157C77.4202 49.9253 78.3157 49.0299 78.3157 47.9253H68.2477ZM57.0779 47.9253C57.0779 49.0299 56.1825 49.9253 55.0779 49.9253H52.0439C51.5055 49.9253 50.9836 49.9857 50.4837 50.0994C49.4804 50.3275 48.4819 49.7577 48.1518 48.8081C48.4521 48.6639 48.7616 48.5358 49.0791 48.4251C49.392 48.3159 49.7128 48.2236 50.0403 48.1491C50.6847 48.0026 51.3553 47.9253 52.0439 47.9253H57.0779ZM43.0439 62.616C44.1485 62.616 45.0439 61.7205 45.0439 60.616V56.9253C45.0439 56.3868 45.1044 55.8649 45.218 55.3651C45.4461 54.3618 44.8764 53.3632 43.9267 53.0332C43.7825 53.3334 43.6545 53.6429 43.5437 53.9605C43.4346 54.2734 43.3422 54.5941 43.2678 54.9217C43.1213 55.566 43.0439 56.2366 43.0439 56.9253V62.616ZM43.0439 88.4507C44.1485 88.4507 45.0439 87.5553 45.0439 86.4507V79.0693C45.0439 77.9648 44.1485 77.0693 43.0439 77.0693V88.4507ZM43.9267 112.487C44.8764 112.157 45.4461 111.158 45.218 110.155C45.1044 109.655 45.0439 109.133 45.0439 108.595V104.904C45.0439 103.8 44.1485 102.904 43.0439 102.904V108.595C43.0439 109.283 43.1213 109.954 43.2678 110.598C43.3422 110.926 43.4346 111.247 43.5437 111.56C43.6545 111.877 43.7825 112.187 43.9267 112.487Z" fill="#976C53"/>
<path d="M110.495 80.6631C110.495 76.7971 113.629 73.6631 117.495 73.6631H146.095C149.961 73.6631 153.095 76.7971 153.095 80.6631V89.2946C153.095 93.1606 149.961 96.2946 146.095 96.2946H117.495C113.629 96.2946 110.495 93.1606 110.495 89.2946V80.6631Z" fill="#4D2911"/>
<path d="M111.382 77.4443C111.382 74.1306 114.068 71.4443 117.382 71.4443H147.095C150.409 71.4443 153.095 74.1306 153.095 77.4443V88.0758C153.095 91.3895 150.409 94.0758 147.095 94.0758H117.382C114.068 94.0758 111.382 91.3895 111.382 88.0758V77.4443Z" fill="#66371B"/>
<circle cx="123.363" cy="82.9819" r="4.8813" fill="#BDBEC0"/>
<path fill-rule="evenodd" clip-rule="evenodd" d="M119.932 92.3005C119.331 92.3005 118.755 92.1945 118.222 92.0002C117.985 91.9141 117.757 91.8105 117.538 91.6912C117.316 91.57 117.105 91.4326 116.905 91.2805C117.254 90.6401 118.028 90.3336 118.735 90.5907C119.106 90.726 119.509 90.8005 119.932 90.8005H125.402C126.23 90.8005 126.902 91.472 126.902 92.3005H119.932ZM147.572 91.2805C147.223 90.6401 146.449 90.3336 145.742 90.5907C145.371 90.726 144.968 90.8005 144.545 90.8005H139.075C138.247 90.8005 137.575 91.472 137.575 92.3005H144.545C145.146 92.3005 145.722 92.1945 146.256 92.0002C146.492 91.9141 146.721 91.8105 146.939 91.6912C147.161 91.5701 147.372 91.4326 147.572 91.2805ZM149.545 84.0782C148.717 84.0782 148.045 84.7498 148.045 85.5782V87.3005C148.045 87.7238 147.97 88.1263 147.835 88.4979C147.578 89.2042 147.885 89.9782 148.525 90.3273C148.677 90.1276 148.815 89.9161 148.936 89.6945C149.055 89.476 149.159 89.2477 149.245 89.011C149.439 88.4774 149.545 87.9013 149.545 87.3005V84.0782ZM148.525 76.5234C147.885 76.8725 147.578 77.6466 147.835 78.3529C147.97 78.7245 148.045 79.127 148.045 79.5503V81.2726C148.045 82.101 148.717 82.7726 149.545 82.7726V79.5503C149.545 78.9495 149.439 78.3734 149.245 77.8397C149.159 77.6031 149.055 77.3747 148.936 77.1563C148.815 76.9346 148.677 76.7231 148.525 76.5234ZM137.575 74.5503C137.575 75.3787 138.247 76.0503 139.075 76.0503H144.545C144.968 76.0503 145.371 76.1248 145.742 76.2601C146.449 76.5172 147.223 76.2107 147.572 75.5703C147.372 75.4181 147.161 75.2807 146.939 75.1596C146.721 75.0402 146.492 74.9367 146.256 74.8506C145.722 74.6563 145.146 74.5503 144.545 74.5503H137.575ZM126.902 74.5503C126.902 75.3787 126.23 76.0503 125.402 76.0503H119.932C119.509 76.0503 119.106 76.1248 118.735 76.2601C118.028 76.5172 117.254 76.2107 116.905 75.5703C117.105 75.4181 117.316 75.2807 117.538 75.1596C117.757 75.0402 117.985 74.9367 118.222 74.8506C118.755 74.6563 119.331 74.5503 119.932 74.5503H126.902ZM114.932 82.7726C115.761 82.7726 116.432 82.101 116.432 81.2726V79.5503C116.432 79.127 116.507 78.7245 116.642 78.3529C116.899 77.6466 116.593 76.8725 115.952 76.5234C115.8 76.7231 115.663 76.9346 115.541 77.1563C115.422 77.3747 115.319 77.6031 115.232 77.8397C115.038 78.3734 114.932 78.9495 114.932 79.5503V82.7726ZM115.952 90.3273C116.593 89.9782 116.899 89.2042 116.642 88.4979C116.507 88.1263 116.432 87.7238 116.432 87.3005V85.5782C116.432 84.7498 115.761 84.0782 114.932 84.0782V87.3005C114.932 87.9013 115.038 88.4774 115.232 89.011C115.319 89.2477 115.422 89.476 115.541 89.6945C115.663 89.9161 115.8 90.1276 115.952 90.3273Z" fill="#966C56"/>
<path d="M38.1962 90.6484L39.5753 107.763C40.0209 111.526 42.3528 119.2 48.1156 119.796C52.6416 120.265 63.3577 120.632 71.2267 120.837C69.9062 121.598 68.3747 122.033 66.7415 122.033H46.7187C41.7482 122.033 37.7188 118.003 37.7188 113.033V93.5484C37.7188 92.5337 37.8866 91.5584 38.1962 90.6484Z" fill="black" fill-opacity="0.35"/>
</svg>
