<svg width="263" height="93" viewBox="0 0 263 93" fill="none" xmlns="http://www.w3.org/2000/svg">
<g clip-path="url(#clip0_349_309)">
<path d="M108.543 86.8383V33.4985C108.543 28.7861 110.425 24.2668 113.775 20.9346C117.125 17.6025 121.668 15.7305 126.406 15.7305L142.237 15.7524C146.962 15.7619 151.49 17.6358 154.827 20.9629C158.165 24.29 160.039 28.7984 160.038 33.4985V44.8496C160.038 49.5622 158.156 54.0819 154.807 57.4145C151.457 60.7471 146.913 62.6196 142.176 62.6204H119.8" stroke="#505050" stroke-width="6.26" stroke-linecap="round" stroke-linejoin="round"/>
<path d="M164.463 15.7275H171.331C173.275 15.7275 175.14 16.4959 176.515 17.8636C177.89 19.2312 178.662 21.0862 178.662 23.0204V62.8618" stroke="#505050" stroke-width="6.26" stroke-linecap="round" stroke-linejoin="round"/>
<path d="M177.188 9.55562L174.075 6.45562C173.891 6.27304 173.745 6.05624 173.646 5.81761C173.546 5.57897 173.495 5.32319 173.495 5.06487C173.495 4.80656 173.546 4.55078 173.646 4.31214C173.745 4.07351 173.891 3.85671 174.075 3.67413L177.188 0.576877C177.56 0.207493 178.064 0 178.589 0C179.115 0 179.618 0.207493 179.99 0.576877L183.101 3.67413C183.285 3.85671 183.43 4.07351 183.53 4.31214C183.629 4.55078 183.68 4.80656 183.68 5.06487C183.68 5.32319 183.629 5.57897 183.53 5.81761C183.43 6.05624 183.285 6.27304 183.101 6.45562L179.976 9.55562C179.792 9.73844 179.574 9.88345 179.334 9.98239C179.094 10.0813 178.837 10.1323 178.577 10.1323C178.317 10.1323 178.059 10.0813 177.819 9.98239C177.579 9.88345 177.361 9.73844 177.177 9.55562" fill="#67DFDD"/>
<path d="M191.846 15.6924H198.656C202.158 15.6909 205.519 17.0737 207.997 19.5365L223.927 35.3825C224.417 35.8709 225 36.2584 225.641 36.5227C226.282 36.7871 226.969 36.9232 227.663 36.9232C228.357 36.9232 229.044 36.7871 229.685 36.5227C230.326 36.2584 230.909 35.8709 231.399 35.3825L247.271 19.5969C248.498 18.3773 249.953 17.41 251.556 16.7504C253.158 16.0908 254.875 15.7518 256.61 15.7528H262.147" stroke="#505050" stroke-width="6.26" stroke-linecap="round" stroke-linejoin="round"/>
<path d="M191.846 62.5137H198.656C202.158 62.5148 205.518 61.1321 207.997 58.6695L223.927 42.8236C224.918 41.8385 226.262 41.2852 227.663 41.2852C229.064 41.2852 230.408 41.8385 231.399 42.8236L247.271 58.6119C249.748 61.0743 253.107 62.457 256.61 62.456H262.147" stroke="#505050" stroke-width="6.26" stroke-linecap="round" stroke-linejoin="round"/>
<path d="M67.9412 72.6344C66.261 72.6404 64.5963 72.3152 63.0432 71.6776C61.4901 71.0399 60.0794 70.1025 58.8927 68.9193L45.8223 55.9098C45.36 55.47 44.745 55.2246 44.1054 55.2246C43.4657 55.2246 42.8507 55.47 42.3884 55.9098L29.2739 68.955C28.0879 70.1399 26.6776 71.0792 25.1245 71.7188C23.5714 72.3583 21.9063 72.6854 20.2254 72.6811H17.6665L34.2287 89.1558C36.7127 91.6215 40.0786 93.0062 43.5878 93.0062C47.097 93.0062 50.4628 91.6215 52.9468 89.1558L69.5422 72.6454L67.9412 72.6344Z" fill="#67DFDD"/>
<path d="M20.2281 26.659C21.9091 26.6546 23.5742 26.9816 25.1273 27.6211C26.6804 28.2607 28.0907 29.2001 29.2766 30.3851L42.3912 43.4331C42.847 43.8851 43.4644 44.139 44.1081 44.139C44.7518 44.139 45.3692 43.8851 45.8251 43.4331L58.8927 30.4345C60.0776 29.248 61.4876 28.3074 63.0409 27.6674C64.5942 27.0273 66.2599 26.7004 67.9412 26.7057H69.5146L52.9192 10.198C51.6903 8.97515 50.2313 8.00511 48.6254 7.34329C47.0196 6.68146 45.2984 6.34082 43.5602 6.34082C41.8219 6.34082 40.1008 6.68146 38.4949 7.34329C36.8891 8.00511 35.43 8.97515 34.2011 10.198L17.6665 26.659H20.2281Z" fill="#67DFDD"/>
<path d="M83.2417 40.3631L73.2133 30.3877C72.9871 30.4796 72.7455 30.5281 72.5011 30.5305H67.941C65.568 30.5364 63.2933 31.4738 61.6115 33.139L48.5439 46.1293C47.367 47.2978 45.7721 47.9541 44.1093 47.9541C42.4465 47.9541 40.8516 47.2978 39.6748 46.1293L26.5575 33.0895C24.8761 31.4234 22.6013 30.4849 20.228 30.4783H14.6299C14.3992 30.4731 14.1712 30.4276 13.9564 30.3438L3.86446 40.3631C1.38574 42.834 -0.00634766 46.1821 -0.00634766 49.6728C-0.00634766 53.1634 1.38574 56.5115 3.86446 58.9824L13.9343 68.999C14.1487 68.9136 14.3769 68.868 14.6078 68.8645H20.228C22.6012 68.8575 24.8759 67.9191 26.5575 66.2532L39.672 53.208C42.0432 50.8521 46.1755 50.8521 48.5439 53.208L61.6115 66.2038C63.2933 67.869 65.568 68.8064 67.941 68.8123H72.5011C72.7455 68.814 72.9873 68.8625 73.2133 68.9551L83.2417 58.9796C84.4711 57.7572 85.4463 56.3059 86.1116 54.7085C86.777 53.1112 87.1194 51.3991 87.1194 49.67C87.1194 47.941 86.777 46.2289 86.1116 44.6315C85.4463 43.0341 84.4711 41.5828 83.2417 40.3604" fill="#67DFDD"/>
<path d="M122.157 82.3048C121.328 82.341 120.506 82.4652 119.703 82.6755V85.9265C120.317 86.1406 120.963 86.2483 121.614 86.2451C123.253 86.2451 124.029 85.6959 124.029 84.2598C124.029 82.9089 123.394 82.3048 122.157 82.3048V82.3048ZM119.151 88.3456V81.9122H119.601L119.648 82.1868C120.484 81.9657 121.341 81.8287 122.204 81.7776C122.803 81.7359 123.397 81.9072 123.88 82.2609C124.432 82.7167 124.62 83.4526 124.62 84.2544C124.62 85.0561 124.344 85.8854 123.571 86.3219C122.981 86.6147 122.328 86.7589 121.669 86.742C121.003 86.7379 120.34 86.6371 119.703 86.4428V88.3346L119.151 88.3456Z" fill="#505050"/>
<path d="M128.733 82.2857C127.096 82.2857 126.364 82.7964 126.364 84.2324C126.364 85.6191 127.085 86.2451 128.733 86.2451C130.38 86.2451 131.093 85.7399 131.093 84.3066C131.093 82.92 130.372 82.2857 128.733 82.2857V82.2857ZM130.841 86.2451C130.289 86.635 129.566 86.7476 128.733 86.7476C127.899 86.7476 127.151 86.6268 126.618 86.2451C126.019 85.825 125.773 85.1468 125.773 84.2709C125.773 83.395 126.019 82.714 126.618 82.2857C127.151 81.904 127.882 81.7832 128.733 81.7832C129.583 81.7832 130.298 81.904 130.841 82.2857C131.449 82.714 131.683 83.4115 131.683 84.2599C131.683 85.1084 131.44 85.825 130.841 86.2451Z" fill="#505050"/>
<path d="M138.598 86.6157L136.771 82.7139H136.735L134.935 86.6157H134.43L132.498 81.9121H133.105L134.726 85.8606H134.764L136.525 81.9121H137.031L138.836 85.8606H138.875L140.456 81.9121H141.055L139.106 86.6157H138.598Z" fill="#505050"/>
<path d="M144.575 82.2748C143.056 82.2748 142.543 82.9476 142.449 83.9223H146.7C146.653 82.8515 146.101 82.2748 144.575 82.2748V82.2748ZM144.555 86.7477C143.647 86.7477 143.056 86.6159 142.587 86.226C142.035 85.751 141.85 85.0618 141.85 84.271C141.85 83.4802 142.101 82.7142 142.731 82.2584C143.281 81.914 143.925 81.748 144.575 81.7833C145.237 81.7436 145.895 81.9024 146.465 82.2391C147.147 82.6949 147.28 83.4967 147.28 84.4083H142.435C142.455 85.3776 142.772 86.2343 144.608 86.2343C145.428 86.2127 146.246 86.1209 147.051 85.9597V86.4539C146.232 86.6213 145.401 86.7178 144.566 86.7422" fill="#505050"/>
<path d="M148.867 86.6164V81.9129H149.314L149.361 82.1874C150.363 81.9348 150.832 81.7783 151.713 81.7783H151.779V82.3H151.646C150.907 82.3 150.457 82.4016 149.419 82.6707V86.6109L148.867 86.6164Z" fill="#505050"/>
<path d="M154.987 82.2748C153.471 82.2748 152.955 82.9476 152.861 83.9223H157.112C157.065 82.8515 156.513 82.2748 154.987 82.2748V82.2748ZM154.967 86.7477C154.059 86.7477 153.471 86.6159 153.002 86.226C152.45 85.751 152.262 85.0618 152.262 84.271C152.262 83.4802 152.516 82.7142 153.143 82.2584C153.693 81.9147 154.338 81.7488 154.987 81.7833C155.649 81.7436 156.307 81.9024 156.878 82.2391C157.562 82.6949 157.706 83.4967 157.706 84.4083H152.842C152.861 85.3776 153.179 86.2343 155.014 86.2343C155.836 86.2129 156.654 86.121 157.46 85.9597V86.4539C156.642 86.6211 155.811 86.7176 154.976 86.7422" fill="#505050"/>
<path d="M163.745 82.6013C163.131 82.3882 162.485 82.2814 161.835 82.2856C160.195 82.2856 159.42 82.8347 159.42 84.2708C159.42 85.63 160.057 86.2258 161.291 86.2258C162.12 86.1876 162.942 86.0652 163.745 85.8606V82.6013ZM163.85 86.6157L163.801 86.3411C162.965 86.5646 162.108 86.7026 161.244 86.753C160.645 86.7979 160.05 86.6252 159.569 86.267C159.017 85.8112 158.829 85.0753 158.829 84.2763C158.829 83.4361 159.105 82.6453 159.878 82.2169C160.469 81.9174 161.125 81.7701 161.788 81.7886C162.451 81.7977 163.11 81.8975 163.745 82.0851V79.9297H164.297V86.6157H163.85Z" fill="#505050"/>
<path d="M172.399 82.3048C171.57 82.3409 170.747 82.4652 169.945 82.6755V85.9183C170.558 86.1384 171.204 86.249 171.855 86.245C173.495 86.245 174.271 85.6958 174.271 84.2598C174.271 82.9089 173.636 82.3048 172.399 82.3048ZM173.812 86.3274C173.223 86.6199 172.571 86.7642 171.913 86.7475C171.193 86.743 170.478 86.6234 169.796 86.3933L169.768 86.6157H169.393V79.9297H169.945V82.173C170.764 81.9645 171.602 81.8339 172.446 81.7831C173.045 81.7414 173.638 81.9126 174.122 82.2664C174.674 82.7222 174.861 83.458 174.861 84.2598C174.861 85.0616 174.585 85.8908 173.812 86.3274Z" fill="#505050"/>
<path d="M175.595 88.4146V87.9039C175.871 87.9313 176.12 87.9505 176.297 87.9505C176.981 87.9505 177.401 87.7528 177.776 86.9813L177.956 86.6078L175.471 81.9043H176.112L178.229 85.9653H178.265L180.277 81.9043H180.906L178.245 87.1872C177.76 88.1455 177.235 88.4613 176.269 88.4613C176.041 88.4601 175.813 88.4445 175.587 88.4146" fill="#505050"/>
<path d="M188.534 83.9331H186.701V85.5806H188.534C189.798 85.5806 190.275 85.4406 190.275 84.7569C190.275 84.021 189.618 83.9331 188.523 83.9331H188.534ZM188.191 81.2752H186.695V82.9501H188.202C189.447 82.9501 189.944 82.8019 189.944 82.1044C189.944 81.3576 189.315 81.2807 188.191 81.2807V81.2752ZM191.04 86.1902C190.364 86.6185 189.549 86.635 188.062 86.635H185.26V80.2373H187.995C189.279 80.2373 190.066 80.2538 190.72 80.6464C190.937 80.7753 191.114 80.9623 191.23 81.186C191.346 81.4097 191.397 81.6613 191.377 81.9122C191.377 82.5822 191.101 83.0298 190.364 83.3291V83.3648C191.192 83.5515 191.722 83.9716 191.722 84.8749C191.743 85.1329 191.689 85.3915 191.569 85.6208C191.448 85.8501 191.265 86.0408 191.04 86.171" fill="#505050"/>
<path d="M197.322 84.6419C196.77 84.5953 196.218 84.5678 195.619 84.5678C194.656 84.5678 194.316 84.7628 194.316 85.2021C194.316 85.6414 194.592 85.8336 195.338 85.8336C196.007 85.8117 196.672 85.7197 197.322 85.559V84.6419ZM197.598 86.6162L197.562 86.3416C196.725 86.5763 195.864 86.7145 194.995 86.7535C194.493 86.7871 193.993 86.6663 193.563 86.4075C193.378 86.253 193.234 86.0553 193.145 85.8321C193.055 85.6089 193.023 85.3671 193.05 85.1283C193.077 84.8896 193.164 84.6613 193.301 84.4638C193.439 84.2664 193.624 84.1059 193.839 83.9967C194.336 83.7633 195.001 83.7441 195.611 83.7441C196.105 83.7441 196.77 83.7715 197.322 83.81V83.7249C197.322 82.989 196.837 82.7473 195.506 82.7473C194.993 82.7473 194.363 82.7748 193.764 82.8297V81.8797C194.429 81.8248 195.18 81.7891 195.799 81.7891C196.627 81.7891 197.474 81.8522 198.007 82.2256C198.54 82.5991 198.653 83.14 198.653 83.8374V86.6217L197.598 86.6162Z" fill="#505050"/>
<path d="M204.82 86.6163V84.0216C204.82 83.1649 204.381 82.8574 203.594 82.8574C202.941 82.8862 202.293 82.9856 201.662 83.1539V86.6191H200.342V81.9128H201.419L201.466 82.2121C202.289 81.9711 203.137 81.8273 203.994 81.7837C204.576 81.7375 205.154 81.9099 205.615 82.267C205.987 82.602 206.128 83.0688 206.128 83.7388V86.6163H204.82Z" fill="#505050"/>
<path d="M209.86 86.7476C209.25 86.7476 208.585 86.6625 208.099 86.2534C207.519 85.7866 207.351 85.0534 207.351 84.2599C207.351 83.5158 207.594 82.703 208.314 82.2472C208.905 81.8656 209.634 81.7832 210.393 81.7832C210.945 81.7832 211.47 81.8189 212.049 81.8738V82.8815C211.572 82.8348 211 82.7991 210.542 82.7991C209.286 82.7991 208.695 83.189 208.695 84.2709C208.695 85.2841 209.137 85.7234 210.167 85.7234C210.834 85.7017 211.498 85.6209 212.151 85.4818V86.4483C211.396 86.6233 210.625 86.7235 209.849 86.7476" fill="#505050"/>
<path d="M216.063 82.7689C214.807 82.7689 214.255 83.1616 214.255 84.2324C214.255 85.3033 214.807 85.7591 216.063 85.7591C217.319 85.7591 217.851 85.3774 217.851 84.3066C217.851 83.2357 217.319 82.7689 216.063 82.7689V82.7689ZM218.329 86.2534C217.749 86.6433 216.99 86.7476 216.063 86.7476C215.135 86.7476 214.359 86.635 213.788 86.2534C213.131 85.825 212.896 85.1166 212.896 84.2709C212.896 83.4252 213.131 82.703 213.788 82.2747C214.359 81.893 215.116 81.7832 216.063 81.7832C217.009 81.7832 217.749 81.893 218.329 82.2747C218.983 82.703 219.209 83.4224 219.209 84.2599C219.209 85.0974 218.975 85.825 218.329 86.2534Z" fill="#505050"/>
<path d="M226.831 86.7475C226.036 86.7475 225.175 86.6157 224.529 86.0858C223.761 85.4515 223.527 84.474 223.527 83.4224C223.527 82.4806 223.828 81.363 224.827 80.7123C225.605 80.2098 226.569 80.1055 227.543 80.1055C228.255 80.1055 228.987 80.1521 229.782 80.218V81.363C229.1 81.3081 228.255 81.2615 227.601 81.2615C225.774 81.2615 224.998 81.9506 224.998 83.4224C224.998 84.8941 225.719 85.5916 227.066 85.5916C228.028 85.5585 228.985 85.4306 229.923 85.2099V86.3467C228.908 86.58 227.872 86.7143 226.831 86.7475" fill="#505050"/>
<path d="M233.804 82.6211C232.7 82.6211 232.285 83.0137 232.2 83.7194H235.385C235.347 82.9561 234.897 82.6211 233.804 82.6211ZM233.605 86.7398C232.829 86.7398 232.125 86.6464 231.601 86.2181C231.076 85.7897 230.842 85.0539 230.842 84.2521C230.842 83.5354 231.076 82.7337 231.733 82.2669C232.313 81.8578 233.053 81.7754 233.804 81.7754C234.477 81.7754 235.272 81.8495 235.852 82.2504C236.611 82.7803 236.68 83.6013 236.68 84.5679H232.192C232.219 85.2873 232.603 85.7513 233.933 85.7513C234.778 85.7329 235.621 85.6522 236.454 85.5097V86.4323C235.514 86.6098 234.561 86.7126 233.605 86.7398" fill="#505050"/>
<path d="M242.559 86.6163V84.0216C242.559 83.1649 242.12 82.8574 241.334 82.8574C240.681 82.8862 240.033 82.9856 239.401 83.1539V86.6191H238.082V81.9128H239.159L239.206 82.2121C240.029 81.9711 240.877 81.8273 241.734 81.7837C242.316 81.7375 242.894 81.9099 243.354 82.267C243.727 82.602 243.868 83.0688 243.868 83.7388V86.6163H242.559Z" fill="#505050"/>
<path d="M247.63 86.7477C246.993 86.7477 246.413 86.5692 246.095 86.075C245.835 85.6477 245.714 85.1511 245.748 84.6527V82.8899H244.792V81.9124H245.748L245.888 80.4873H247.053V81.9124H248.916V82.8899H247.053V84.4001C247.036 84.7041 247.08 85.0085 247.183 85.2952C247.324 85.611 247.633 85.7318 248.047 85.7318C248.364 85.726 248.679 85.6948 248.991 85.6384V86.5802C248.542 86.677 248.084 86.7331 247.625 86.7477" fill="#505050"/>
<path d="M250.211 86.6163V81.9127H251.288L251.335 82.212C252.09 81.957 252.879 81.8127 253.676 81.7837C253.732 81.7804 253.788 81.7804 253.844 81.7837V82.9232C253.695 82.9232 253.516 82.9232 253.386 82.9232C252.76 82.9257 252.137 83.0069 251.531 83.1648V86.6383L250.211 86.6163Z" fill="#505050"/>
<path d="M258.647 84.6419C258.095 84.5953 257.543 84.5678 256.941 84.5678C255.978 84.5678 255.641 84.7628 255.641 85.2021C255.641 85.6414 255.917 85.8336 256.659 85.8336C257.33 85.8117 257.996 85.7197 258.647 85.559V84.6419ZM258.923 86.6162L258.884 86.3416C258.047 86.5763 257.186 86.7145 256.317 86.7535C255.815 86.7871 255.315 86.6663 254.885 86.4075C254.711 86.2749 254.572 86.102 254.48 85.9039C254.389 85.7057 254.348 85.4884 254.36 85.2707C254.347 85.0029 254.417 84.7376 254.559 84.51C254.702 84.2825 254.911 84.1034 255.158 83.9967C255.655 83.7633 256.317 83.7441 256.927 83.7441C257.424 83.7441 258.089 83.7715 258.641 83.81V83.7249C258.641 82.989 258.153 82.7473 256.825 82.7473C256.309 82.7473 255.682 82.7748 255.083 82.8297V81.8797C255.749 81.8248 256.497 81.7891 257.115 81.7891C257.943 81.7891 258.79 81.8522 259.323 82.2256C259.856 82.5991 259.969 83.14 259.969 83.8374V86.6217L258.923 86.6162Z" fill="#505050"/>
<path d="M261.661 79.9297H262.983V86.6157H261.661V79.9297Z" fill="#505050"/>
</g>
<defs>
<clipPath id="clip0_349_309">
<rect width="263" height="93" fill="white"/>
</clipPath>
</defs>
</svg>
