<svg width="191" height="123" viewBox="0 0 191 123" fill="none" xmlns="http://www.w3.org/2000/svg">
<path fill-rule="evenodd" clip-rule="evenodd" d="M187.149 122.436C189.655 113.893 191 104.854 191 95.5C191 42.7568 148.243 0 95.5 0C42.7568 0 0 42.7568 0 95.5C0 104.854 1.34474 113.893 3.85144 122.436H187.149Z" fill="#F3E9DB"/>
<path fill-rule="evenodd" clip-rule="evenodd" d="M190.337 106.814C189.705 112.169 188.629 117.389 187.149 122.436H100.411L60.1413 81.9319C47.5977 75.5758 39 62.5599 39 47.5359C39 26.2531 56.2531 9 77.5359 9C90.0548 9 101.179 14.9696 108.218 24.2174L190.337 106.814Z" fill="#505050" fill-opacity="0.05"/>
<path fill-rule="evenodd" clip-rule="evenodd" d="M109.77 68.662C106.832 73.1353 102.988 76.9603 98.4994 79.876L131.482 113.05C134.577 116.164 139.61 116.178 142.724 113.083C145.837 109.987 145.852 104.954 142.757 101.841L109.77 68.662Z" fill="#505050"/>
<path fill-rule="evenodd" clip-rule="evenodd" d="M111.919 70.6719L107.817 66.5469C104.88 71.0201 101.036 74.8451 96.5469 77.7609L100.643 81.881C105.133 78.9671 108.979 75.1438 111.919 70.6719Z" fill="#67DFDD"/>
<path fill-rule="evenodd" clip-rule="evenodd" d="M77.5359 86.0718C98.8187 86.0718 116.072 68.8187 116.072 47.5359C116.072 26.2531 98.8187 9 77.5359 9C56.2531 9 39 26.2531 39 47.5359C39 68.8187 56.2531 86.0718 77.5359 86.0718ZM78.0497 73.7403C92.2382 73.7403 103.74 62.2382 103.74 48.0497C103.74 33.8612 92.2382 22.3591 78.0497 22.3591C63.8611 22.3591 52.3591 33.8612 52.3591 48.0497C52.3591 62.2382 63.8611 73.7403 78.0497 73.7403Z" fill="#BDBDC7"/>
<path fill-rule="evenodd" clip-rule="evenodd" d="M97.7872 42.3013C89.0919 39.9372 80.0318 40.4451 71.8796 44.3958C66.5935 46.9576 62.207 50.7158 58.813 55.3019C57.9625 53.0468 57.4971 50.6028 57.4971 48.05C57.4971 36.6992 66.6987 27.4976 78.0495 27.4976C87.4049 27.4976 95.3004 33.7483 97.7872 42.3013Z" fill="#BDBDC7" fill-opacity="0.2"/>
</svg>
