<svg xmlns="http://www.w3.org/2000/svg" width="400" height="56" viewBox="0 0 400 56"><title>Artboard 9svgappbar</title><g id="Layer_5" data-name="Layer 5"><rect x="-10.5" width="418" height="56" style="fill:#505050"/><path d="M29,56H-.5V18.9A38.1,38.1,0,0,1,29,56Z" style="fill:#536466"/><path d="M81.4,0A20.4,20.4,0,0,1,66,7,20.4,20.4,0,0,1,50.6,0Z" style="fill:#536b6b"/><path d="M400,0V46.3A39.5,39.5,0,0,1,388.6,56H350.4A39,39,0,0,1,337.3,0Z" style="fill:#55636c;opacity:0.5"/><path d="M346.5,35.5A25.6,25.6,0,0,1,336.2,56H305.8a25.5,25.5,0,1,1,40.7-20.5Z" style="fill:#546c6c;opacity:0.5"/></g></svg>