<svg width="198" height="137" viewBox="0 0 198 137" fill="none" xmlns="http://www.w3.org/2000/svg">
<g clip-path="url(#clip0_421_246)">
<path d="M228.423 509.464V107.857H254.182V509.464H228.423ZM296.749 240.419C295.493 227.764 290.1 217.933 280.57 210.926C271.042 203.918 258.109 200.415 241.773 200.415C230.674 200.415 221.302 201.984 213.658 205.121C206.013 208.155 200.149 212.39 196.065 217.828C192.086 223.268 190.097 229.437 190.097 236.341C189.887 242.093 191.091 247.111 193.71 251.4C196.431 255.688 200.149 259.401 204.862 262.538C209.574 265.571 215.018 268.239 221.198 270.539C227.375 272.735 233.972 274.618 240.989 276.187L269.889 283.09C283.921 286.228 296.801 290.411 308.529 295.639C320.258 300.869 330.414 307.3 339.002 314.935C347.589 322.571 354.238 331.565 358.95 341.918C363.767 352.273 366.228 364.144 366.333 377.529C366.228 397.191 361.202 414.238 351.253 428.672C341.41 442.999 327.168 454.138 308.529 462.086C289.995 469.931 267.639 473.853 241.459 473.853C215.49 473.853 192.872 469.877 173.603 461.929C154.441 453.981 139.466 442.216 128.681 426.633C118 410.945 112.397 391.544 111.874 368.43H177.687C178.42 379.203 181.51 388.197 186.954 395.413C192.506 402.526 199.887 407.912 209.102 411.572C218.423 415.128 228.946 416.906 240.674 416.906C252.193 416.906 262.193 415.233 270.675 411.886C279.261 408.539 285.912 403.885 290.623 397.923C295.335 391.963 297.692 385.111 297.692 377.373C297.692 370.157 295.545 364.09 291.251 359.175C287.062 354.259 280.885 350.076 272.717 346.624C264.654 343.174 254.758 340.037 243.031 337.212L208.003 328.428C180.882 321.839 159.467 311.537 143.76 297.522C128.052 283.508 120.251 264.631 120.356 240.89C120.251 221.436 125.435 204.442 135.906 189.904C146.482 175.367 160.986 164.019 179.416 155.862C197.845 147.704 218.789 143.625 242.245 143.625C266.12 143.625 286.957 147.704 304.76 155.862C322.666 164.019 336.594 175.367 346.542 189.904C356.49 204.442 361.62 221.28 361.935 240.419H296.749Z" fill="#92A33B"/>
<path d="M227.537 508.468V106.862H253.296V508.468H227.537ZM295.864 239.423C294.606 226.769 289.215 216.938 279.685 209.93C270.156 202.924 257.223 199.419 240.888 199.419C229.789 199.419 220.415 200.989 212.772 204.126C205.127 207.159 199.263 211.394 195.179 216.833C191.2 222.271 189.212 228.443 189.212 235.344C189.002 241.096 190.206 246.117 192.824 250.405C195.546 254.692 199.263 258.405 203.977 261.544C208.688 264.576 214.133 267.242 220.312 269.543C226.489 271.74 233.087 273.622 240.102 275.19L269.004 282.094C283.036 285.231 295.915 289.415 307.644 294.645C319.372 299.873 329.529 306.305 338.116 313.941C346.702 321.574 353.353 330.568 358.064 340.923C362.881 351.277 365.343 363.147 365.448 376.534C365.343 396.196 360.316 413.243 350.368 427.675C340.525 442.005 326.283 453.143 307.644 461.091C289.11 468.934 266.752 472.856 240.573 472.856C214.604 472.856 191.986 468.883 172.718 460.935C153.555 452.985 138.581 441.219 127.795 425.636C117.114 409.948 111.512 390.549 110.988 367.435H176.802C177.535 378.208 180.624 387.202 186.069 394.418C191.62 401.529 199.002 406.916 208.217 410.577C217.535 414.132 228.06 415.91 239.789 415.91C251.307 415.91 261.307 414.237 269.79 410.89C278.375 407.543 285.026 402.89 289.738 396.928C294.45 390.967 296.806 384.116 296.806 376.376C296.806 369.16 294.659 363.095 290.366 358.18C286.177 353.264 279.999 349.081 271.832 345.629C263.769 342.178 253.872 339.04 242.144 336.216L207.118 327.431C179.996 320.842 158.582 310.54 142.874 296.526C127.167 282.511 119.366 263.634 119.47 239.894C119.366 220.441 124.549 203.446 135.02 188.909C145.597 174.372 160.1 163.024 178.531 154.866C196.96 146.709 217.904 142.63 241.359 142.63C265.235 142.63 286.072 146.709 303.875 154.866C321.781 163.024 335.708 174.372 345.656 188.909C355.604 203.446 360.734 220.283 361.049 239.423H295.864Z" fill="#FFDD00"/>
<path d="M197.504 95.7155C196.895 89.2688 195.65 82.8993 193.79 76.7007C193.598 76.019 193.372 75.3374 193.164 74.6734C192.817 73.6071 192.452 72.5586 192.088 71.5274C191.723 70.4963 191.481 69.9021 191.168 69.0807C190.96 68.5389 190.734 67.9972 190.508 67.4554C190.282 66.9136 189.935 66.0921 189.64 65.4105C187.826 61.2711 185.727 57.2648 183.356 53.4214C182.991 52.8272 182.609 52.233 182.227 51.6387C181.584 50.6427 180.942 49.6639 180.266 48.7026C179.119 47.0599 177.922 45.4344 176.672 43.8615C175.7 42.6498 174.71 41.4614 173.703 40.2963L173.826 45.9064L173.86 70.9682L173.703 88.1479V100.504L144.001 100.469L143.948 123.451C142.568 123.474 141.25 124.034 140.272 125.016C139.294 125.997 138.733 127.322 138.706 128.712L78.6748 128.589V128.222H77.2688V128.117C77.2666 127.075 76.968 126.056 76.4079 125.179C75.8479 124.302 75.0502 123.606 74.1091 123.172C73.8619 123.137 73.6125 123.119 73.3628 123.119H73.276V122.875C72.8117 122.748 72.3331 122.684 71.8523 122.682H71.7655V119.868H65.3772V119.764C65.3775 119.506 65.3603 119.249 65.325 118.995H64.5092V118.89C64.5157 117.6 64.0803 116.347 63.2765 115.342C62.2853 114.533 61.0461 114.094 59.7698 114.101H59.6656V113.28C59.4125 113.244 59.1573 113.227 58.9018 113.227H58.7976L58.8323 100.382H40.1877V99.4729H39.285V91.0316H30.6918V89.6684H29.112L29.0773 76.4211L29.008 39.5099V37.7622C28.5565 38.2514 28.1051 38.7235 27.6711 39.2303C15.6934 52.5309 7.57986 68.8915 4.2178 86.5226C3.9574 87.9207 3.71436 89.3189 3.50604 90.7344L3.29772 92.3075C3.24564 92.6219 3.21092 92.9191 3.1762 93.2162C3.07204 94.0552 2.98524 94.8764 2.9158 95.7155C2.62068 98.8263 2.46444 101.972 2.46444 105.153C2.45194 114.498 3.76724 123.797 6.37044 132.766H194.032C194.119 132.487 194.206 132.19 194.275 131.91C194.727 130.302 195.143 128.694 195.508 127.051L195.56 126.877C195.698 126.247 195.821 125.618 195.96 124.989C197.281 118.461 197.945 111.815 197.938 105.153C197.938 101.972 197.781 98.8263 197.504 95.7155Z" fill="#F3E9DB"/>
<path d="M168.808 35.0877C167.315 33.5846 165.752 32.1339 164.155 30.7358V35.0877H168.808Z" fill="#F3E9DB"/>
<path d="M149.243 25.3359H157.316C152.195 21.6085 146.723 18.3949 140.98 15.7412C137.538 14.1385 134.001 12.7494 130.39 11.5817C122.352 8.95062 114.006 7.38779 105.565 6.93283C104.35 6.86293 103.135 6.82799 101.902 6.81051H100.201C92.8251 6.78816 85.47 7.60306 78.2754 9.23979C76.904 9.55437 75.5674 9.90391 74.2132 10.2709C62.8094 13.4355 52.0736 18.6649 42.5312 25.7029L130.512 25.4059L149.243 25.3359Z" fill="#F3E9DB"/>
<path d="M172.75 43.7217L172.783 68.9233L172.801 87.2216L172.819 99.5951L144.018 99.5603V100.469L173.721 100.504L173.703 88.1479L173.859 70.9681L173.826 45.9062L173.703 40.2961L173.634 37.5524V35.9795H172.732V36.6435L172.75 43.7217Z" fill="#004F22"/>
<path d="M52.7563 99.4556L40.1877 99.438V100.347L53.659 100.364H58.8323V99.4556H52.7563Z" fill="#004F22"/>
<path d="M164.155 35.0879L171.168 35.0703H172.732L168.808 35.0879H164.155Z" fill="#4FB880"/>
<path d="M156.188 93.9153C156.17 93.5657 156.17 93.1987 156.188 92.8317C156.219 92.271 156.307 91.7148 156.448 91.1714H144.036V93.9677L156.188 93.9153Z" fill="#4FB880"/>
<path d="M165.77 52.0576C165.44 52.0752 165.076 52.0576 164.728 52.0402L164.173 51.9878V60.4116L164.208 78.8148V84.0053C164.624 83.9588 165.058 83.9238 165.51 83.9005L165.77 52.0576Z" fill="#4FB880"/>
<path d="M172.75 48.4224L172.783 68.9227L172.75 43.7212V48.4224Z" fill="#4FB880"/>
<path d="M55.0999 93.7583C55.1006 93.9284 55.0832 94.0985 55.048 94.2651H58.8497V91.0493H54.8916C55.0837 91.9384 55.1538 92.8499 55.0999 93.7583Z" fill="#4FB880"/>
<path d="M172.819 99.5955L158.427 99.578L144.018 99.5605L172.819 99.5955Z" fill="#4FB880"/>
<path d="M58.8322 99.4556V94.2651H55.0477C55.0829 94.0985 55.1005 93.9284 55.0998 93.7583C55.1535 92.8499 55.0834 91.9384 54.8913 91.0493H39.2673V99.4556H58.8322Z" fill="#2F925C"/>
<path d="M164.156 35.0879V51.988L164.711 52.0404C165.058 52.0578 165.423 52.0754 165.753 52.0578L165.51 83.9007C165.058 83.9124 164.624 83.9472 164.208 84.0055V91.1711H156.448C156.306 91.7145 156.219 92.2705 156.188 92.8314C156.17 93.1984 156.17 93.5654 156.188 93.915L144.018 93.9674V99.5599H172.819V68.9231L172.783 48.4226V35.0703H164.208L164.156 35.0879Z" fill="#2F925C"/>
<path d="M162.576 34.0748L162.611 59.1715L162.628 77.4523L162.646 89.8083L144.036 89.7909V91.1542L156.448 91.1716H164.243L164.225 84.006V78.8155L164.19 60.4124L164.173 51.9885L164.156 35.3504V35.0884V30.7366V28.22L164.139 26.647H162.559V26.8568L162.576 34.0748Z" fill="#004F22"/>
<path d="M44.1808 91.0315L54.8918 91.049H58.85V89.6857L42.6009 89.6683L30.6919 89.6509V91.014L39.2678 91.0315H44.1808Z" fill="#004F22"/>
<path d="M28.9731 25.7554L28.9907 29.041V26.9262L28.9731 25.7554Z" fill="#4FB880"/>
<path d="M130.512 25.4058L42.5314 25.703L34.459 25.7378L41.9238 25.7204L130.512 25.4058Z" fill="#4FB880"/>
<path d="M160.995 25.2837H162.558L157.315 25.3011L151.899 25.3185L160.995 25.2837Z" fill="#4FB880"/>
<path d="M162.646 89.8079L148.254 89.7905H144.036L162.646 89.8079Z" fill="#4FB880"/>
<path d="M58.9714 78.4481C60.4646 78.4481 61.8971 77.8521 62.9547 76.7906C64.0123 75.7292 64.6087 74.289 64.6134 72.7856C64.6103 72.6278 64.5988 72.4703 64.5785 72.3138L77.5812 72.3487C75.0724 68.9775 73.5465 64.9693 73.1744 60.7736C72.8021 56.578 73.5986 52.361 75.4744 48.5956C77.3502 44.8303 80.2311 41.6657 83.7938 39.4569C87.3565 37.2478 91.4602 36.0821 95.6444 36.0903C99.8285 36.0984 103.928 37.2802 107.482 39.5029C111.036 41.7256 113.905 44.9014 115.766 48.6739C117.628 52.4464 118.408 56.6666 118.02 60.8607C117.632 65.0549 116.09 69.0573 113.569 72.4186H127.925C127.936 72.7115 127.965 73.0034 128.012 73.2924H128.793C128.81 74.5549 129.25 75.7745 130.043 76.753C131.007 77.5412 132.204 77.9839 133.446 78.0112V78.7977C133.733 78.8449 134.023 78.8741 134.314 78.8851V83.3067H138.098C138.1 83.6 138.129 83.8926 138.185 84.1806L146.014 84.1456C145.994 83.7844 146 83.4224 146.032 83.0621C146.177 80.6644 147.219 78.4113 148.949 76.7572C150.679 75.103 152.968 74.1709 155.354 74.1489L155.614 42.2711C155.262 42.2914 154.908 42.2855 154.555 42.2536C153.317 42.1779 152.105 41.8569 150.99 41.3087C149.875 40.7604 148.878 39.9958 148.057 39.0589C147.236 38.122 146.607 37.0311 146.206 35.8489C145.805 34.6666 145.639 33.4162 145.719 32.1694C145.722 32.0291 145.734 31.8889 145.754 31.75L45.5173 32.3442C45.5579 32.8267 45.5638 33.3115 45.5346 33.7947C45.3832 36.2333 44.3052 38.5194 42.5242 40.179C40.7432 41.8386 38.3958 42.7442 35.9693 42.708L35.9172 73.8692H36.0908C37.3288 73.947 38.5394 74.2698 39.6534 74.8188C40.7675 75.3677 41.7633 76.1321 42.5838 77.0687C43.4043 78.005 44.0336 79.0951 44.4357 80.2763C44.8377 81.4576 45.0047 82.7072 44.927 83.9534C44.927 84.1282 44.9097 84.303 44.8923 84.4776L58.8671 84.4252V78.4481H58.9714ZM135.234 68.6961C133.366 68.578 131.574 67.9049 130.086 66.7616C128.598 65.6184 127.48 64.0564 126.874 62.2735C126.268 60.4905 126.201 58.5665 126.682 56.7453C127.162 54.9239 128.169 53.287 129.573 52.0416C130.978 50.7963 132.718 49.9983 134.574 49.7488C136.429 49.4994 138.316 49.8096 139.996 50.6401C141.677 51.4708 143.074 52.7845 144.013 54.4151C144.951 56.0457 145.388 57.9197 145.268 59.8003C145.191 61.0483 144.87 62.2685 144.323 63.3912C143.777 64.514 143.016 65.5173 142.084 66.3436C141.152 67.1698 140.067 67.8029 138.891 68.2066C137.716 68.6103 136.473 68.7766 135.234 68.6961ZM52.1835 68.8534C50.3205 68.7322 48.5349 68.0579 47.0524 66.9156C45.5698 65.7733 44.4569 64.2143 43.8541 62.4353C43.2513 60.6566 43.1857 58.7378 43.6657 56.9213C44.1456 55.1051 45.1497 53.4727 46.5508 52.2306C47.9518 50.9885 49.6871 50.1923 51.5377 49.9425C53.388 49.6929 55.2704 50.0009 56.9469 50.8279C58.6234 51.6548 60.019 52.9634 60.9571 54.5883C61.8952 56.2132 62.3338 58.0817 62.2176 59.9577C62.1426 61.2064 61.8229 62.4277 61.2774 63.5515C60.7317 64.6755 59.9708 65.6795 59.0382 66.5063C58.1057 67.3331 57.02 67.966 55.8437 68.3687C54.6673 68.7717 53.4234 68.9363 52.1835 68.8534Z" fill="#4FB880"/>
<path d="M162.575 34.0747V38.6362L162.61 59.1714L162.575 34.0747Z" fill="#4FB880"/>
<path d="M92.3022 52.4772C92.3017 53.0527 92.4643 53.6166 92.7709 54.1025C93.2606 54.4954 93.7901 54.8353 94.3508 55.1161V49.6284C92.9794 50.1002 92.3022 51.0439 92.3022 52.4772Z" fill="#2F925C"/>
<path d="M97.0076 36.0841C92.7128 35.8205 88.4326 36.7993 84.6724 38.9051C80.9123 41.0109 77.8291 44.1558 75.7868 47.9687C73.7443 51.7813 72.8281 56.1026 73.1462 60.4226C73.4642 64.7425 75.0033 68.8808 77.5817 72.3486H87.2686V72.2612C86.9792 72.1447 86.6841 72.0049 86.3833 71.8418V65.9695C87.1992 66.6337 88.4144 67.2627 90.0289 67.8222C91.6433 68.3814 93.0842 68.7134 94.3515 68.8008V61.7401C91.5392 60.6042 89.5949 59.3807 88.5012 58.0874L88.1713 57.668L87.6158 57.0738C86.418 55.6407 85.8104 53.893 85.8104 51.8307C85.7907 50.7725 85.9888 49.7215 86.3921 48.7439C86.7955 47.7665 87.3952 46.8836 88.154 46.1508C89.7164 44.5779 91.7822 43.6691 94.3515 43.4245V39.4747H97.4242V40.4883H98.3096V43.3895C100.827 43.5817 102.754 44.0361 104.073 44.7701V45.3644C104.378 45.4829 104.674 45.623 104.959 45.7838V51.5161C102.933 50.2925 100.661 49.5401 98.3096 49.314V56.6718C100.931 57.7204 102.84 58.8739 104.056 60.1672C104.261 60.3878 104.452 60.6214 104.629 60.8662L104.941 61.1808C106.257 62.5874 106.974 64.457 106.938 66.3889C106.938 68.7308 106.191 70.6359 104.698 72.069L104.334 72.401H113.569C116.022 69.1293 117.55 65.25 117.99 61.1746C118.429 57.0994 117.765 52.9803 116.067 49.2547C114.368 45.5289 111.7 42.3357 108.344 40.0136C104.989 37.6918 101.071 36.3278 97.0076 36.0667V36.0841Z" fill="#2F925C"/>
<path d="M98.3091 68.5035C99.7326 68.0491 100.444 67.1228 100.444 65.6723C100.445 65.1989 100.319 64.7342 100.08 64.3266C99.5362 63.9074 98.9411 63.5608 98.3091 63.2954V68.5035Z" fill="#2F925C"/>
<path d="M143.583 64.532C146.543 60.1967 145.451 54.2669 141.145 51.2874C136.838 48.3079 130.948 49.4068 127.989 53.7421C125.029 58.0774 126.121 64.0073 130.427 66.9868C134.733 69.9664 140.623 68.8673 143.583 64.532Z" fill="#2F925C"/>
<path d="M62.2177 59.9572C62.3375 58.0766 61.9007 56.2025 60.9624 54.5718C60.024 52.9414 58.6263 51.6277 56.9462 50.797C55.266 49.9663 53.3788 49.6562 51.5235 49.9056C49.6679 50.1552 47.9279 50.953 46.523 52.1985C45.1182 53.444 44.112 55.0808 43.6316 56.9022C43.1512 58.7235 43.2182 60.6474 43.8242 62.4302C44.4302 64.2133 45.548 65.7752 47.0358 66.9185C48.5239 68.0617 50.3154 68.7349 52.1835 68.8529C53.4235 68.9359 54.6673 68.7712 55.8437 68.3685C57.02 67.9655 58.1057 67.3326 59.0383 66.5058C59.9708 65.6792 60.7317 64.675 61.2774 63.5512C61.823 62.4272 62.1426 61.2059 62.2177 59.9572Z" fill="#2F925C"/>
<path d="M29.0774 76.4034L29.1121 89.6509H58.8498V84.4078L44.875 84.4602C44.8924 84.2854 44.9097 84.1106 44.9097 83.936C44.9874 82.6896 44.8204 81.4402 44.4184 80.2589C44.0162 79.0777 43.3869 77.9877 42.5664 77.0511C41.7459 76.1147 40.7502 75.3503 39.636 74.8012C38.522 74.2523 37.3115 73.9297 36.0735 73.8519H35.8999L35.952 42.6906C38.3785 42.7269 40.7258 41.8212 42.5068 40.1615C44.2878 38.5019 45.3659 36.2157 45.5173 33.7774C45.5463 33.2942 45.5406 32.8094 45.5 32.3269L145.754 31.75C145.734 31.889 145.722 32.0291 145.719 32.1695C145.639 33.4162 145.805 34.6667 146.206 35.8489C146.607 37.0313 147.236 38.1221 148.057 39.059C148.878 39.9959 149.875 40.7605 150.99 41.3087C152.105 41.8569 153.317 42.1781 154.555 42.2536C154.907 42.2856 155.261 42.2914 155.614 42.2712L155.354 74.1315C152.968 74.1535 150.679 75.0856 148.949 76.7399C147.219 78.3939 146.177 80.647 146.032 83.0446C146 83.4048 145.994 83.7671 146.014 84.1282L138.185 84.1632C138.2 84.2755 138.223 84.3863 138.254 84.4952H138.81C138.811 85.1998 138.959 85.8963 139.244 86.54C139.739 87.1846 140.372 87.7082 141.097 88.0714C141.822 88.4346 142.618 88.628 143.428 88.6372V89.7383L144.035 89.7731H162.645V59.1713L162.61 38.636V25.2837H161.048L151.952 25.3185H149.243L130.512 25.3885L41.9238 25.7031H28.9731V39.4399L29.0774 76.4034Z" fill="#2F925C"/>
<path d="M97.4238 43.337L98.3093 43.3894V40.4883H97.4238V43.337Z" fill="#92A33B"/>
<path d="M106.937 66.3894C106.974 64.4575 106.257 62.5879 104.941 61.1813L104.628 60.8667C105.576 62.1745 106.076 63.7572 106.052 65.3757C106.052 67.7352 105.306 69.6228 103.813 71.0558C103.263 71.5895 102.637 72.0373 101.955 72.3841H104.333L104.698 72.0519C106.191 70.6364 106.937 68.7313 106.937 66.3894Z" fill="#92A33B"/>
<path d="M98.3093 63.2959C98.9412 63.5613 99.5364 63.9079 100.08 64.3271C99.6285 63.5464 98.7433 62.8647 97.4238 62.2822V68.7138C97.7242 68.6685 98.0204 68.5983 98.3093 68.504V63.2959Z" fill="#92A33B"/>
<path d="M92.3027 52.4773C92.3027 51.0442 92.9799 50.1004 94.3512 49.6286V48.3877C92.3895 48.7373 91.4175 49.7684 91.4175 51.4637C91.4175 52.4423 91.8687 53.3337 92.7714 54.1026C92.4648 53.6169 92.3022 53.0531 92.3027 52.4773Z" fill="#92A33B"/>
<path d="M104.073 50.5023C102.047 49.2787 99.7754 48.5264 97.4238 48.3004V56.3396L98.3093 56.6717V49.3141C100.661 49.54 102.932 50.2924 104.958 51.516V45.7837C104.673 45.6229 104.377 45.4827 104.073 45.3643V50.5023Z" fill="#92A33B"/>
<path d="M88.1709 57.6685L88.5007 58.0881C89.5944 59.3813 91.5387 60.6046 94.3509 61.7407V61.0764C91.5212 60.0104 89.4555 58.8745 88.1709 57.6685Z" fill="#92A33B"/>
<path d="M87.2681 72.3651H87.4401L87.2681 72.2783V72.3651Z" fill="#92A33B"/>
<path d="M106.052 65.3749C106.076 63.7562 105.576 62.1737 104.628 60.8658C104.452 60.6211 104.261 60.3874 104.055 60.1668C102.84 58.8735 100.931 57.7201 98.3091 56.6714L97.4237 56.3394V48.3C99.7753 48.5261 102.047 49.2785 104.073 50.5021V44.7696C102.753 44.0357 100.826 43.5813 98.3091 43.3889L97.4237 43.3365V39.4741H94.351V43.4239C91.7817 43.6687 89.7159 44.5774 88.1535 46.1503C87.3947 46.8831 86.795 47.7662 86.3916 48.7436C85.9883 49.7212 85.7902 50.7721 85.8099 51.8304C85.8099 53.8927 86.4175 55.6404 87.6153 57.0734L88.171 57.6677C89.4555 58.8735 91.5213 60.0094 94.351 61.0756V68.8003C93.0837 68.7131 91.643 68.3809 90.0285 67.8216C88.4139 67.2624 87.1987 66.6332 86.3828 65.9691V71.8588C86.6721 72.0104 86.9673 72.1502 87.2681 72.2782L87.4417 72.3657H101.955C102.636 72.0189 103.262 71.5712 103.812 71.0374C105.305 69.6217 106.052 67.7342 106.052 65.3749ZM91.4173 51.4633C91.4173 49.7681 92.3893 48.737 94.351 48.3874V55.1159C93.7904 54.8353 93.2609 54.4954 92.7714 54.1023C91.8685 53.3333 91.4173 52.442 91.4173 51.4633ZM97.4237 62.2815C98.7431 62.8525 99.6286 63.5339 100.08 64.3262C100.319 64.7338 100.445 65.1987 100.444 65.6721C100.444 67.1226 99.7326 68.0488 98.3091 68.5032C98.0203 68.5974 97.7241 68.6676 97.4237 68.713V62.2815Z" fill="#FFDD00"/>
<path d="M73.2935 123.119H73.3803C73.63 123.119 73.8794 123.136 74.1268 123.171C73.8577 123.049 73.5789 122.95 73.2935 122.874V123.119Z" fill="#070707"/>
<path opacity="0.6" d="M144.018 99.5604V89.7909L143.41 89.7559L143.445 122.805C142.044 122.832 140.709 123.404 139.718 124.401C138.728 125.398 138.159 126.743 138.133 128.152L78.6748 128.24V128.607L138.706 128.729C138.733 127.34 139.294 126.015 140.272 125.033C141.25 124.052 142.568 123.491 143.948 123.469L144.001 100.487V99.5604H144.018Z" fill="black"/>
<path d="M138.81 84.4951H138.255C138.438 85.2393 138.776 85.936 139.244 86.54C138.96 85.8962 138.812 85.1998 138.81 84.4951Z" fill="#070707"/>
<path d="M135.928 120.375V90.979H134.296L134.244 114.415C132.786 114.438 131.392 115.03 130.359 116.067C129.326 117.104 128.733 118.505 128.706 119.973L78.6924 119.868V120.375H135.928Z" fill="#505050"/>
<path d="M143.463 122.787L143.428 89.7385V88.6374C142.232 88.6188 141.077 88.2022 140.141 87.4531C139.205 86.7038 138.542 85.664 138.255 84.4954C138.223 84.3867 138.2 84.2757 138.185 84.1634C138.13 83.8754 138.101 83.5828 138.098 83.2896H134.314V90.2803H136.623V121.057H78.0154V119.869H71.7832V122.682H71.87C72.3508 122.684 72.8294 122.748 73.2935 122.875C73.579 122.95 73.8577 123.05 74.1268 123.172C75.0679 123.606 75.8657 124.303 76.4256 125.179C76.9855 126.056 77.2842 127.075 77.2863 128.118V128.223H78.6925L138.151 128.135C138.177 126.725 138.745 125.381 139.736 124.383C140.726 123.386 142.062 122.814 143.463 122.787Z" fill="#505050"/>
<path d="M135.928 90.979V120.375H78.6916V119.868H78.0146V121.057H136.605V90.2974H134.296V90.979H135.928Z" fill="#F4F4F4"/>
<path d="M59.666 113.262V114.084H59.7702C61.0465 114.077 62.2857 114.515 63.2769 115.325C62.3821 114.194 61.0886 113.456 59.666 113.262Z" fill="#67DFDD"/>
<path d="M128.012 73.3096C128.235 74.6783 128.959 75.9132 130.043 76.77C129.25 75.7917 128.81 74.5721 128.793 73.3096H128.012Z" fill="#070707"/>
<path d="M78.0154 119.868H78.6924L128.707 119.973C128.733 118.505 129.326 117.104 130.359 116.067C131.393 115.03 132.786 114.438 134.244 114.416L134.297 90.9793V78.9027C134.006 78.8918 133.716 78.8627 133.429 78.8154L133.376 113.542C131.918 113.564 130.525 114.157 129.491 115.193C128.458 116.23 127.865 117.631 127.839 119.1L65.3252 118.977C65.3604 119.232 65.3778 119.489 65.3773 119.746V119.851H78.0154V119.868Z" fill="#003834"/>
<path d="M125.755 110.92V80.5103H66.5576V110.92H125.755ZM73.085 90.0002H80.9664V91.8177H78.1367V99.9619H75.8799V91.8353H73.085V90.0002ZM73.8314 86.7144V85.2989H75.2376V86.732L73.8314 86.7144ZM110.496 91.9051H107.024V94.1246H110.27V95.9423H107.006V98.2142H110.704V100.049H104.767V90.0526H110.478L110.496 91.9051ZM81.4698 91.7479V90.0176H85.3585V91.7653H84.5252V98.2492H85.3585V99.9969H81.4525V98.2666H82.2859V91.7479H81.4698ZM97.823 94.7538H97.8577L98.1354 94.212L100.878 90.0526H103.552L100.08 94.8062L103.83 100.032H101L98.1181 95.6801C98.0176 95.5065 97.9307 95.3253 97.8577 95.1382H97.823V100.014H95.5835V90.035H97.823V94.7538ZM87.4417 98.8258C86.5737 97.9172 86.1397 96.7287 86.157 95.2256C86.1744 93.7228 86.6431 92.3421 87.6326 91.3458C88.6222 90.3496 89.8721 89.8604 91.4345 89.8604C92.2664 89.8431 93.0951 89.9732 93.8822 90.2448V92.3945C93.1903 91.9962 92.4052 91.791 91.6081 91.8003C90.688 91.8003 89.9242 92.0973 89.3686 92.6741C88.8131 93.2507 88.5006 94.0548 88.5006 95.0684C88.5006 96.0821 88.761 96.7985 89.2992 97.3754C89.8374 97.952 90.5665 98.2318 91.4692 98.2318C92.3104 98.2499 93.1398 98.0321 93.8649 97.6026V99.6473C93.1358 100.014 92.1983 100.189 91.0352 100.172C89.5075 100.172 88.3097 99.7173 87.4417 98.8258ZM77.7548 86.732V85.2989H79.1783V86.732H77.7548ZM90.9658 85.3337V86.7494H89.5422V85.3337H90.9658ZM93.483 86.7668V85.3337H94.8891V86.7668H93.483ZM101.33 86.7844V85.3513H102.736V86.7844H101.33ZM105.27 86.7844V85.3513H106.694V86.7668L105.27 86.7844ZM109.194 86.7844V85.3687H110.617V86.8018L109.194 86.7844ZM98.8298 86.7668H97.4063V85.3513H98.8298V86.7668ZM87.0424 85.3163V86.7494H85.6362V85.3163H87.0424ZM83.1017 85.3163V86.732H81.6782V85.3163H83.1017ZM114.541 86.8018H113.135V85.3687H114.541V86.8018ZM118.481 86.8194H117.058V85.4037H118.481V86.8194ZM75.2029 104.768H73.7967V103.352H75.2029V104.768ZM79.1436 104.786H77.7201V103.352H79.1436V104.786ZM83.067 104.786H81.6434V103.352H83.0496L83.067 104.786ZM86.9903 104.803H85.5842V103.387H86.9903V104.803ZM90.931 104.803H89.5075V103.37H90.931V104.803ZM94.8544 104.821H93.4482V103.405H94.8544V104.821ZM98.7778 104.821H97.3716V103.387H98.7951L98.7778 104.821ZM102.719 104.821H101.295V103.405H102.719V104.821ZM106.642 104.838H105.236V103.405H106.642V104.838ZM110.583 104.838H109.159V103.422H110.583V104.838ZM114.506 104.855H113.082V103.422H114.489L114.506 104.855ZM118.429 104.855H117.023V103.44H118.447L118.429 104.855ZM119.263 91.9225H116.45V100.067H114.193V91.9051H111.399V90.07H119.28L119.263 91.9225Z" fill="#67DFDD"/>
<path d="M127.838 119.099C127.865 117.631 128.458 116.23 129.491 115.194C130.524 114.156 131.917 113.564 133.376 113.542L133.445 78.8153V78.0289C132.204 78.0017 131.007 77.5588 130.043 76.7706C128.959 75.9138 128.235 74.679 128.012 73.3102C127.965 73.021 127.936 72.7291 127.925 72.4364H77.5808L64.5783 72.4014C64.5985 72.5579 64.6101 72.7154 64.6129 72.8732C64.6083 74.3766 64.0119 75.8168 62.9543 76.8782C61.8967 77.9397 60.4643 78.5357 58.9709 78.5357H58.8669V100.364L58.832 113.21H58.9363C59.1919 113.209 59.4471 113.227 59.7 113.262C61.0453 113.448 62.2777 114.12 63.1685 115.151C64.0592 116.183 64.5478 117.505 64.5436 118.872V118.977H65.3595L127.838 119.099ZM65.8628 79.8116H126.449V111.619H65.8628V79.8116Z" fill="#67DFDD"/>
<path d="M126.45 111.619V79.811H65.8638V111.619H126.45ZM66.5582 80.5101H125.756V110.92H66.5582V80.5101Z" fill="#F4F4F4"/>
<path d="M75.8972 91.8356L75.88 99.9798H78.1194L78.1368 91.8356H80.9665V90.0181L73.085 90.0005V91.8182L75.8972 91.8356Z" fill="#F7F7F7"/>
<path d="M82.2855 98.2497H81.4521V99.9798L85.3409 99.9974V98.2497H84.5076L84.5248 91.7658H85.3581V90.0181H81.4696V91.7483H82.3029L82.2855 98.2497Z" fill="#F7F7F7"/>
<path d="M91.035 100.172C92.1981 100.19 93.1356 100.015 93.8647 99.648V97.6031C93.1395 98.0327 92.3101 98.2506 91.469 98.2323C90.5663 98.2323 89.8372 97.9527 89.299 97.3759C88.7607 96.7992 88.5003 96.0302 88.5003 95.069C88.5003 94.1077 88.7956 93.2689 89.3683 92.6746C89.9413 92.0804 90.6878 91.8008 91.6079 91.8008C92.4049 91.7916 93.19 91.9967 93.8819 92.395V90.2453C93.0949 89.9739 92.2662 89.8437 91.4343 89.8609C89.8719 89.8609 88.6046 90.3503 87.6323 91.3464C86.6603 92.3426 86.1567 93.6359 86.1567 95.2264C86.1567 96.8167 86.5735 97.9177 87.4415 98.8266C88.3095 99.7352 89.5073 100.172 91.035 100.172Z" fill="#F7F7F7"/>
<path d="M95.5835 100.015H97.8229V95.1386H97.8575C97.9305 95.3257 98.0176 95.5067 98.1179 95.6804L101 100.032H103.829L100.08 94.8066L103.552 90.0527H100.878L98.1354 94.2123L97.8575 94.7542H97.8229V90.0527H95.6007L95.5835 100.015Z" fill="#F7F7F7"/>
<path d="M104.767 100.032L110.704 100.05L110.722 98.2145H107.007V95.9424H110.253V94.1249L107.007 94.1073L107.024 91.8878L110.496 91.9054V90.0703L104.785 90.0527L104.767 100.032Z" fill="#F7F7F7"/>
<path d="M111.398 90.0698V91.9049H114.211L114.193 100.049H116.433L116.45 91.9049L119.262 91.9223L119.28 90.0872L111.398 90.0698Z" fill="#F7F7F7"/>
<path d="M73.772 103.299L73.7695 104.732L75.1861 104.734L75.1886 103.301L73.772 103.299Z" fill="#F7F7F7"/>
<path d="M77.7022 103.316L77.6997 104.749L79.1163 104.752L79.1187 103.319L77.7022 103.316Z" fill="#F7F7F7"/>
<path d="M81.6319 103.333L81.6294 104.767L83.0461 104.769L83.0486 103.336L81.6319 103.333Z" fill="#F7F7F7"/>
<path d="M85.5621 103.334L85.5596 104.768L86.9761 104.77L86.9786 103.337L85.5621 103.334Z" fill="#F7F7F7"/>
<path d="M89.4751 103.334L89.4727 104.768L90.8892 104.77L90.8917 103.337L89.4751 103.334Z" fill="#F7F7F7"/>
<path d="M93.4224 103.334L93.4199 104.768L94.8366 104.77L94.8391 103.337L93.4224 103.334Z" fill="#F7F7F7"/>
<path d="M97.3353 103.352L97.333 104.785L98.7496 104.787L98.752 103.354L97.3353 103.352Z" fill="#F7F7F7"/>
<path d="M101.284 103.369L101.281 104.802L102.698 104.805L102.7 103.372L101.284 103.369Z" fill="#F7F7F7"/>
<path d="M105.196 103.369L105.194 104.802L106.61 104.805L106.613 103.372L105.196 103.369Z" fill="#F7F7F7"/>
<path d="M109.126 103.386L109.124 104.819L110.54 104.822L110.543 103.389L109.126 103.386Z" fill="#F7F7F7"/>
<path d="M113.057 103.369L113.054 104.802L114.471 104.805L114.473 103.372L113.057 103.369Z" fill="#F7F7F7"/>
<path d="M116.987 103.386L116.984 104.819L118.401 104.822L118.403 103.389L116.987 103.386Z" fill="#F7F7F7"/>
<path d="M73.8067 85.249L73.8042 86.6821L75.2208 86.6846L75.2232 85.2515L73.8067 85.249Z" fill="#F7F7F7"/>
<path d="M77.7193 85.2661L77.7168 86.6992L79.1333 86.7017L79.1358 85.2686L77.7193 85.2661Z" fill="#F7F7F7"/>
<path d="M81.6666 85.2661L81.6641 86.6992L83.0806 86.7017L83.0831 85.2686L81.6666 85.2661Z" fill="#F7F7F7"/>
<path d="M85.5801 85.2837L85.5776 86.7168L86.9942 86.7193L86.9967 85.2862L85.5801 85.2837Z" fill="#F7F7F7"/>
<path d="M89.5274 85.3018L89.5249 86.7348L90.9414 86.7373L90.9439 85.3042L89.5274 85.3018Z" fill="#F7F7F7"/>
<path d="M93.44 85.3018L93.4375 86.735L94.854 86.7375L94.8565 85.3042L93.44 85.3018Z" fill="#F7F7F7"/>
<path d="M97.3873 85.3188L97.3848 86.7519L98.8015 86.7544L98.804 85.3213L97.3873 85.3188Z" fill="#F7F7F7"/>
<path d="M101.301 85.3188L101.298 86.7519L102.715 86.7544L102.718 85.3213L101.301 85.3188Z" fill="#F7F7F7"/>
<path d="M105.248 85.3188L105.246 86.7519L106.662 86.7544L106.665 85.3213L105.248 85.3188Z" fill="#F7F7F7"/>
<path d="M109.161 85.3364L109.158 86.7695L110.575 86.772L110.577 85.3389L109.161 85.3364Z" fill="#F7F7F7"/>
<path d="M113.091 85.3364L113.089 86.7695L114.506 86.772L114.508 85.3389L113.091 85.3364Z" fill="#F7F7F7"/>
<path d="M117.022 85.354L117.019 86.7871L118.436 86.7896L118.438 85.3565L117.022 85.354Z" fill="#F7F7F7"/>
</g>
<defs>
<clipPath id="clip0_421_246">
<rect width="217" height="151" fill="white" transform="translate(-10 -6)"/>
</clipPath>
</defs>
</svg>
